<svg xmlns="http://www.w3.org/2000/svg" viewBox="16 16 32 32">
  <defs>
    <linearGradient id="linear-gradient" x1="18.59" x2="29.18" y1="22.83" y2="41.17" gradientUnits="userSpaceOnUse">
      <stop offset="0" stop-color="#fff" stop-opacity=".5"/>
      <stop offset="1" stop-opacity=".7"/>
    </linearGradient>
    <clipPath id="clip-path">
      <rect id="Ambient" width="24.34" height="28.85" x="22.99" y="17.58" class="cls-1" rx="1.35"/>
    </clipPath>
    <style>
      .cls-1{fill:none}.cls-4{mix-blend-mode:multiply}.cls-5{fill:#fff}.cls-7{fill:#21a366}.cls-9{fill:#107c41}
    </style>
  </defs>
  <g style="isolation:isolate">
      <g id="_142" data-name="142">
        <g id="Ambient-2" data-name="Ambient">
          <rect width="24.34" height="28.85" x="22.99" y="17.58" class="cls-5" opacity=".2" rx="1.35"/>
          <rect width="24.34" height="28.85" x="22.99" y="17.58" class="cls-5" opacity=".12" rx="1.35"/>
        </g>
        <path d="M35.61 17.58H24.34A1.34 1.34 0 0023 18.93v5.86h12.61z" class="cls-7"/>
        <path fill="#33c481" d="M46 17.58H35.61v7.21h11.71v-5.86A1.34 1.34 0 0046 17.58z"/>
        <path d="M35.61 32h11.72v7.21H35.61z" class="cls-9"/>
        <path fill="#185c37" d="M35.61 39.21V32H23v13.07a1.34 1.34 0 001.35 1.35H46a1.34 1.34 0 001.35-1.35v-5.86z"/>
        <path d="M22.99 24.79h12.62V32H22.99z" class="cls-9"/>
        <path d="M35.61 24.79h11.72V32H35.61z" class="cls-7"/>
        <g clip-path="url(#clip-path)">
          <rect width="16.23" height="16.23" x="15.77" y="23.89" class="cls-5" opacity=".48" rx="1.35"/>
          <rect width="16.23" height="16.23" x="15.77" y="23.89" class="cls-5" opacity=".24" rx="1.35"/>
        </g>
        <rect width="16.23" height="16.23" x="15.77" y="23.89" class="cls-9" rx="1.35"/>
        <path d="M15.77 15.77h32.45v32.45H15.77z" class="cls-1"/>
        <path d="M20 36.39L22.81 32l-2.61-4.39h2.1l1.42 2.8c.13.26.22.46.27.59l.29-.62 1.52-2.77h1.93L25.07 32l2.74 4.43h-2l-1.65-3.07a2.63 2.63 0 01-.19-.41 1.93 1.93 0 01-.19.4L22 36.39z" class="cls-5"/>
        <rect width="16.23" height="16.23" x="15.77" y="23.89" fill="url(#linear-gradient)" opacity=".5" rx="1.35"/>
      </g>
    <path id="TrapLine" d="M0 0h64v64H0z" class="cls-1"/>
  </g>
</svg>
