<svg xmlns="http://www.w3.org/2000/svg" viewBox="0 0 43.9 54.5">
  <defs/>
  <g fill="#fff">
    <path d="M.6 8.2h42.7l-5 42.7H5.6zM5.5 3h33.2l5.1 5.2H.3z"/>
  </g>
  <path fill="#ecf1f4" d="M5.7 54l-.1-.1V49l-1-6.9-.9-6.8L2 22 .2 8.4l.4-.6.4-.5 1.5-1.7L4 4V1.5l.4.2.4.2 3.2.3 3.2.3h.1l-.9 1.9-.9 1.8.1.3.1.2 2 .2 2.2.2.9.2.8.2v-.6l-.5-.3-.5-.4V4.8l.4-.2h.3v-.8l-.2.4-.2.4-.2-.4-.2-.3.5-.1.5-.1.4-1 .5-1 .1-.6.2-.6h.7l1.4 1.2L20.2 3h3l.5.2.6.1-.1-.8-.2-.7.7-.2.7-.2 1.2.4 1.3.5 1.6-.2h1.6l.4-.3.4-.1.2.6.3.6h5.2V4l-.4 2.2-.4 2.2.3.5.2.5H37.6l1.2-.3L40 9V8.6l-.3-.3-.2-.2-.5-2.5-.4-2.5.2-.2.1-.1 2 2.1 2 2.1.4.8.4.7-1 7.3-.9 7.4-1.6 12.1-1.6 12.2-.2 3.3-.2 3.3H22.1l-16.2.1zm11-5l.2-.3-.8-.3-.8-.2h-.4l.7.5.7.5H16.6l.2-.2zm-2.3-1.1l.2-.3h-.8l-.2.3-.1.3h.8zm-2-1.5L13 45l.3-.8.2-.7-.2-.3-.1-.2-.4.3-.4.3V43.4l-1.2.4-1.3.3-1.2.6-1.3.6 2.2 1.2 2.2 1v.1h.1l.6-1.2zm9.5-1.9V44l-.5-.8-.7-.7v.8l-.2 1-.2 1 .8-.1h.7zM8.2 26.3V26l.3.2.2.1v-.9l-.3-1-.2-1.1-.6-1.2L7 21h-.4v-.8h-.2l-.2-.2v.7l-.1.7-.3 2.2-.3 2.2.1.3.2.4.9.1.8.1H8l.3.1zm4-3.6V22l-.4.5-.4.5.2.3v.2l.3-.2.3-.1zm.3-3.1l-.1-.5.3-.2.3-.1v-1.2l-1.5-.7L10 16H8.3l.5-.4.6-.3.8-.2 1-.2-.1-.4v-.4l-.4-.5-.3-.5-1.7.9-1.6.8-.7 1-.8.9-.7 1.4-.7 1.4h.5l.2-.3.1-.2 1.8-.3 1.8-.3h1l.8.2.7 1 .6 1.2.5-.4.4-.4zM35.2 15v-1.9l-1.4 1.4-1.3 1.3v.5l-.5.1-.6.2.2.2.1.1.8-.3.9-.4-.2-.3-.1-.4h.4l.6.5.7.4.2.4.2.3h.1V17zm-6 .6l-.1-.2-.2.2-.1.2.2.4.2.5.1-.5.1-.5zm-10-1.8l.8-.2.4-.1.4-.2-1.8-.3-1.8-.4-1.5-.7-1.5-.6h-1v.4l1 1.2 1.1 1.2-.1-.6-.2-.6h.5l.8.6.8.7.6-.1.7-.1.8-.2zm4.2-3.4l.5-.4-1.3-.4-1.4-.5L21 9l-.3-.4-1.5-.6-1.6-.5h-.3l-.2.1.7 1.2.7 1h.4l.5-.4.5-.6h.8l.8 1 .7 1.1h.8zm-13.3-2v-.3H9l-.4.3-.4.2h1.8v-.3zm13.6-2.7V5l.2.2.2.1-.1.4-.2.4h.4l.6-.6.6-.6v.7h-.5v.6l.5-.6.5-.6v-.7l-.6-.4-.5-.5h-1.2l-.5.8-.6.8.2.3.1.3-.3-.2-.3-.1v.5l.4.1.3.1-.7.3-.6.3h2.1zm0-1.9l.3-.2h.5l.5.2-.7.1-.8.2zm-11.2-.2l-.6-.8h3.6l-.6.5-.6.4v.6H13l-.6-.7z"/>
  <path fill="#e7edf1" d="M5.7 53.3l-.2-1 .1-.9.1-1-1-8-1-7.9-1-8.2-1.1-8.2-.7-4.7-.6-4.8.3-.6.3-.5 1.7-2 1.6-1.8-.1-.8-.2-.7.3-.2.2-.1 3.2.3 3.1.2.4.1.3.2-.4.4-.4.5L10 5l-.7 1.4.2.2.2.3H13l.8.3.8.3.8-.2.7-.2-.6-.3-.6-.3-.1-.5-.1-.4.8-1.7.7-1.7.2-.8.2-.9H17l.7.4.7.4.8.8.7.8h3.6v.4l-.3.4-.4.4-.7 1.2-.7 1.2.2.2.2.2H23.5l1.1-.6 1.1-.6.3-.7.2-.6-1-.8-.8-.8-.1-.5v-.5l.4-.2.6-.2 1.8.5 1.8.6 1.4-.4 1.5-.5.2.7.3.6h2.5l2.5-.1V3l.2.2-.4 2.3-.3 2.3V8h-1.1l-1.2.2 1 .3 1.1.4.3.4.3.4 1.2-.2 1.3-.2.1-.2.2-.3-.3-.6-.2-.6-.4-2-.4-2.2.1-.1.2-.2 2 2.3 2.2 2.2.2.6.2.6-.2 1.8-.3 1.8-1.4 11.4L40.2 35l-.8 6-.8 5.9-.2 3.5-.2 3.6H22l-16.2.1zM16.9 49v-.3l-1-.5-1-.5-.5-.2-.6-.2-.3.6-.3.6.9-.2.9-.2.5.6.5.5h.9zm-4.4-1.5l-.1-.4.8-2 .8-2V43l-.2-.2-2.3.7-2.2.8-.8.4-.8.4-.1.2-.2.3 2 1 1.8 1 .3.2.2.2h1zm9.5-3.1v-.9l-.8-1.1-.8-1.2v4.5l.8-.2.8-.3v-.8zm4.2-.1v-.4l-.3.2-.2.1v.5h.5zm-18.8-.2v-.4h-.8l-.1.2-.2.2.4.2.3.1h.4zM26 42.7v-.4h-.7l.1.4.2.4h.4zM9 35l-.2-.5-.1-2-.1-2-.2-.7-.2-.6-.4-.4-.4-.5H7V32l-.2 1.6-.2 1.6.5.2h.4l.8.1h.8zm12-3.1l.5.2.3-1 .3-1 .7.3.6.3h1V29l-.3-.5-.4-.5h-.5l-.2-.3v-.3H22l-.7-.1v.5l-.5-.1-.5-.2v.6l.2.6-.3.5-.2.6v-1l-.3.1-.4.1.1 1 .1.8.3.3.2.2-.6.7-.6.6.9-.4.8-.4zM9.7 26.8l-.1-.5L9 25l-.4-1.3-.1-.5-.1-.6.3.8.4.7 1-1 1-.9v-1l.3-.2.4-.2.2.2.2.2-.7 1-.6 1.2.5.3.5.4.6-.2.5-.1h.7V23l-.6-1-.5-1.1.9-.9 1-.8v-.6l.2-.5-1-.5-.9-.4.4-.4.5-.4-.2-.3-.2-.3-.2.4-.3.3.1-.4.1-.4h.5l.5-.2.4-.2.2-.5.1-.5h1l.8.1.6.5.5.5 1.2-.4 1.2-.5.8-1 1-.8-.2-.2v-.2h.3l.3-.2-.2.4-.2.3.4-.3.4-.4.3.2.2.1.4-.2.3-.3h-.6l.1-.3.2-.3.3.2h.3l.4-.3.3-.4h-1.1l-.1.3-.2.3H23l.5-.4.5-.4h1.6l-.8-.5-.9-.4.3-.3.3-.4h-.8l-.7-.2H24.6l-.1-.3-.2-.3H20l-1-.5-1.1-.6h-1.5l1 1.4 1 1.3-.2.1v.1l-.8.1h-.8l-.3-.8-.3-1-1.3-.1-1.3-.2H9.5l-1.1.3-1.2.3-.3.6-.4.6-1.1.7-1.1.6H2.6v-.2l.7-1.1.7-1.2v-.4H.7l.4.3.4.2.2 1.7L2 12l.1.4v.4l.6 3.2.6 3.2v1.4h.5l.3-.3.4-.4.6-.3.6-.3.1.4.2.4-.2 1.7-.1 1.6-.2 1.4-.2 1.3.7.4.6.3.8.2.8.2H9.8zm-5.5-9.3l.2-1.4-.4-.2-.3-.3h.7l-.3-.4-.4-.4h.7l-.2-.4L4 14l.2.2.3.1-.1-.8-.1-.8h.4l.5.5.6.4.2 1 .1 1-.5.8-.6.7v.5l-.5.7-.5.6zm.3 7l.1-.7H4v1.6l.2-.1v-.1l.2-.7zm0-1.2l-.3-.1v-1.8l-.3-.3-.3-.2v.5l.2.4V23.5h.9l-.3-.2zM33.8 21l.5-.4-.2-.3-.1-.2h-2.4v1.5l-.1.6 1-.4.9-.4.4-.4zm-2.5-.9l.1-.3h-.8v.6h.5zm4-4.5l-.2-1.7v-.7l-.1-.6-.5.8-.5.8-.8.5-.8.5v.5l-.8.8-.9.7 1-.1 1-.1.5-.5.5-.4.7.7.8.7.1-.2h.2l-.2-1.7zm-5.8.5v-1h-.4l-.4.4-.4.5.2.6.2.6h.8zm12.5-7.8l-.3-.1h-.3l-.4.2h1.4zM12.6 3.7l-.4-.4v-.4h3l-.8.7-.8.6H13z"/>
  <path fill="#e4e9ec" d="M5.8 52.5v-1.8l-1-8.2-1.1-8.2L2.5 25l-1.2-9-.4-3.2-.4-3.1V9l.2-.6.3.2.3.2.1 1.4.2 1.4.1.6.1.5.2 1L2 15l.3 1.9.3 1.8v.6l.2.5.2 1.6.1 1.6.1.1v.2l.3 1.7.1 1.7.3 1 .2 1.1.3 2 .3 1.8h.5v-1.4l-.1-1.5h.5l-.4-.2-.3-.2.2-.2.3-.2v-1.1l-.1-1.2.5.2h.4l.2 1.2.2 1.1-.2 1-.1 1 .3.5.3.4-.3-.3-.4-.2v2.4l-.1.9.2.2.1.3 1.2.3 1.2.4h.7v-.7l.1-.6-.3-.7-.4-.7v-2.4l-.2-.6-.3-.5v-1.8l-.2.3-.1.4h-.5l.1-.4.2-.4 1-.3 1-.3v-.8l-.3-.7h.5l.8-.7.7-.7h2.6v-.4l-.5-1.2-.4-1.3H13V21l1-.9.9-.8.5-.5.5-.5-.8-.3-.9-.3V17l1.4-1 1.5-1 .4.3.5.2.4-.2.5-.1 1-.7 1-.6h.4l-.4.3-.3.2.3.2.3.2.1-.8.2-.8.9.4.9.3h2.3l.1-.9.2-.8-.3-1-.3-1.1-.3-.2-.4-.2V8.2h-4.5l-1-.5-1-.6H16.3l.4.8.4.8.4.3.4.3v.7H16.7l-.3-1-.4-.8-2-.1-2.2-.2L10 8l-1.8.1-.6.2-.6.2v.1l-.4.5-.3.6-.5.2-.6.3-.3.3-.4.3-1 .1-1 .2.6-1 .6-1L4 9l.2-.3v-.4H.5V7.9l1.9-2 1.8-2V1.7l.8.1.7.2 2.6.2 2.6.2v.2l.2.2-.8 1.2-.7 1.3-.2.8-.2.7H13.5l.1.2.2.3h2l.2-.2.1-.3-.5-.1-.5-.1-.2-.5-.1-.4.8-2 .8-1.8.2-.7.1-.8h.4l1 .8 1 .7.4.5.4.4h3.7l-.3.3-.2.4-.8 1.5-.9 1.5V6.9h2l1.2-.6 1-.5.4-.7.3-.7-1-.8-1-.8V1.6h1.8l1.2.4 1.1.4 1-.1.9-.1.8-.2.8-.2.2.6.1.5h2.6l2.6-.1-.2 1.7-.2 1.8-.1.8-.2.8h-2v.6H36l.7.6.7.6 1.2-.2 1.2-.3.3-.4.3-.4.6.2.5.2.1.4.1.5v-.5l.1-.4.7-.3.8-.3h-3.6l-.1-.6-.2-.6-.3-2-.4-1.8h.4l2.1 2.3 2.1 2.3.1.4.2.4-.8 5.8-.7 5.8-1.9 14.4L38.3 49v5.1H22l-16.2.1zm9.9-4.5l-1.5-.6h-1.8l.1-.4.2-.3.6-1.6.7-1.6v-1l-.4.2-.5.2-1.4.4-1.4.3-1.2.6-1.2.5-.3.3-.4.4 2 1 2 1 .8.6.7.5 1.1-.2 1.1-.1.8.7.8.6.4-.4.3-.5-1.5-.6zm5-1.5l-.1-.8.3.2.3.2-.2.2-.1.3h.2l.6-1 .5-1v-.9h.6V43h-1L21 42l-.7-1.3v6.8h.4zm6.6-.2l.3-.3-.7.2-.8.2H26l-.2.2H27l.4-.3zm-.6-1l-.5-.3v-1.5l-.4.5-.4.6.6.4.6.5h.5l-.4-.3zM7.5 44.1l.2-.3-.4-.1-.4-.2-.5.2-.4.2.5.2.5.2h.4l.1-.2zm18.3-1.5v-.5h-.3L25 42v1.4h.4l.3-.2zm3.6-.6v-.3l-.4-.1-.3-.1-.5-.1h-.5l-.1.2-.1.3.5.1.4.2h1zm-9.5-2.3l-.1-.4h-.2v.8h.5zm1.7-7.5l.5-1.1.4.1.5.1.2-.2.1-.2.8.3.7.4.4-.4.4-.5.1-.4.2-.4 1-.2.9-.2-.2-.2-.1-.3h.7l-.4-.3-.4-.2h.5l-.5-.4-.5-.4.2-.3.2-.4-.4.4-.4.4-.5 1-.5.8H25v-.9l-.2-.9-.8-.7-.8-.7h-.5l.2-.3.1-.2-.5-.1-.5-.2.1.4.2.4L21 26l-1.1-.5-.3.2-.4.1v1l-.2.2-.3.3v.6l-.1.7.2.8.2.8.4.6.4.6-.6.3-.5.3v.4l.7.4.7.4h1zM35 24.4l.4.2L35 23l-.2-1.5-.1-1.1-.1-1.1.8.8.7.7.4-.1.4-.2v-1.5l-.4.1-.3.2-.4-.7-.3-.6V16.8l-.1-1.7v-1.7l-.3-.4-.2-.4-.5.4-.6.5-.4-.2-.4-.1v-.4l-2.4-.7-2.3-.7h-1l.6.6.5.6.4.8.5.9v.7l-.6.3-.5.3V17l.3.2.4.3.7.1.7.2v-.5H30v-1.1h.8l.1.3.2.4-.3-.3-.3-.2.1.4.2.4.2.4.1.5h.5l-.2-.3-.2-.3.5.1.4.2.7-.2.6-.3-.4 1-.4.8.9.4.9.4H32l-2.2-.2v.2l.1.4.2.3h.8l.8-.2-.2 1-.2 1h.9l.6-.4.6-.3.6-.5.6-.6v.7H34l.4.2.3.2-.2 2-.3 1.8.2.2.1.1.1-.7.1-.7.3.1zm-3-5.9l.2-.5-.2.1-.3.2v.7h.2zm-20.9 3.8v-.6l.4-.4.5-.4.2.2-.5.9-.6.9v-.6zm1.6-18.7l-.6-.7h3.1L15 3h-.2l-.8.6-.8.6z"/>
  <path fill="#d8e8f2" d="M5.8 52.5v-1.8l-1-8.4-1-8.3-1.4-10.2-1.3-10.2-.1-1-.2-1L.7 10 .5 8.6l.2.3.3.2.3 2.1.3 2.2.1.8.1.7.2 1.2.1 1.2.3 1.5.2 1.4.3 1.9.2 1.8.2 1.1.1 1 .2 1.3.1 1.1L4 30l.2 1.5.3 1.5.3 1.5.2 1.5.3 1.5.1.4.2.4.2-.4.3-.3-.2-.3-.2-.3v-.6l-.1-.6.4.1.4.2v-.8l.5.2.5.1.3.7.2.6-.1 2.2-.2 2.1v.9l-.1.9.5.6.5.7h-.4l-.5.6-.5.7 1.2.5 1 .5 2 1 1.7 1.1.8-.2.8-.2.9.6.8.7h.6v-.8h.8l.8-.2-.2.3-.1.2.4-.1.4-.2v.6l.5.4.6.4v-.7L19 48.2l-1.1-1.3-1.1-2-1-2-.2-.2h-.2v.8l.3.2.3.2h-2l.2-.2.1-.3-.1-.5-.2-.6-.5.3-.5.2-1 .3-1.2.2h-.4l-.3-.2-.3-.8-.2-.8h.4V40.6l.1-.3-.2-.5-.2-.6h-.4l.1.4.2.5-.3-.4-.3-.4.2-.2v-.2h-.5l.3-.5.4-.4-.3.2-.3.2-.1-.6-.2-.5.3-.1.2-.2-.3-.5-.2-.5H9l.6-.1v-.7l.1-.6-.3-.7-.4-.7v-2.4l-.2-.6-.3-.5v-1.1l.3-.1.3-.1h-.6v-.8l.7-.2.8-.2.1-.7V26l1-.8 1-.8h2.2l-.2-.7-.1-.7v-.4l-.1-.4-.2-.3-.2-.4h.6l-.2-.5-.1-.6 1-1 1-1V18l-.5-.2-.5-.1.1-.3.2-.3 1-.4 1.1-.5V16l1.4-.5 1.3-.4h1.8l-.1-.6-.2-.6.2-.2.1-.2 1 .5 1 .5 1.2.2 1.1.2-.1-2.3-.1-2.3-.6-.4-.6-.4v-.7l.8-.2.7-.2h.3l.2.1h.8l.8-.1-2.3-.2-2.2-.2h-4.1l-.6-.4-.6-.4-1.4-.1-1.4-.2-.4-.3-.4-.3v-.7l.7-1.3L16 3l.3-1.2.3-1.3h.4l1 .8 1 .7.4.5.4.4h3.4v.4l-.4.5-.4.5-.2-.2L22 4l.1.5.2.5-.4.7-.5.6V7h2.2l1.1-.6 1-.6.3-.7.3-.7-1-.9-1-.8v-1H26L27 2l1.2.4 1.2-.1 1.2-.2.6-.1.7-.2.2.6.1.5h4.6v.6l.2-.2.3-.2v.2L37 5.6l-.4 2.2V8h-1.9v.3l-.2.2 1 .2 1.1.1.2.4.1.4.4.1.4.2 1.3-.3 1.3-.3v-.5h1.1l-.2.8-.2.7-.2.3-.1.2V15.4l.2.1.2.2.1-.1.1-.1.2-1 .2-1.1v-.7l.2-.7.1-1.2.1-1.1.1-.4.1-.4.3-.2.2-.2h.9l-.6 4.8-.7 4.8-1.2 9.2-1.2 9-.8 6.3-.8 6.2v5l-.2.4H5.9zm22.5-5.8l1.2-1.3.6-.6.5-.6-.3-.1-.4-.2v-.8l-.5.1-.6.1.2-.2.2-.3-.8.1-.8.2-.7.2-.7.3-.2-.2-.3.6-.3.7.3.2.2.1V50l.6-1 .5-.8 1.3-1.4zM22 45l.4-1 .6-.2.7-.3H25l1.3-.1-.4-.6-.4-.6-.4-.1-.4-.2.2.2.1.2-.2.4-.2.3-.8-.4-.7-.4-1-.2-1-.1-.4-.6-.4-.6v8l.7-1.4.6-1.3.4-1zm10 2.3v-.8l.2-.4.3.2.2.1-.1.4-.2.3.4-.5.4-.5-.3-.6-.3-.6.4.4.4.3v-4.1h-.7l.3.4.4.4-.3-.2-.4-.2-.7.2-.6.1v.4l.2.3-.2.2-.3.2v.4l.2.5-.4.4-.3.4.7 1.3.6 1.4H32.3l-.1-.4zm.7-3.2l-.5-.1v-.5L32 43l.6-.2.5-.3v.7L33 43l-.2-.2v.8l.3.3.3.3h-.2zM7.7 44v-.5l-.8.1-.8.1v.4l.3.2.3.1h1zm23-.6v-.5h-.5l.1.4v.5h.1v.1h.5l-.1-.5zM29.5 42v-.3h-.2l-.2-.2-.8-.2-.7-.1v.7l.5.2h.4l.5.1h.5zm-9.5-2.3l-.1-.4h-.2v.8h.5zm16.3-.6l-1-.7v-.8l-.3.4-.2.4V38.8l.8.6.9.5h.7l-1-.7zm2.6-4.6v-.3l-.2.6-.2.6.3-.2.3-.3zm-16-2.3L24 32l1.2-.5 1.2-.5-.3-.2-.4-.2.4-.3.3-.3.8-.1.7-.2-.2-.3-.1-.2h.7l-.4-.3-.4-.2h.5l-.5-.4-.5-.4.2-.3.2-.2h-.5l-.6 1.1-.7 1.2H25.2l-.2-.9-.1-.9-.9-.6-.8-.7h-.5l.2-.3.1-.2-.5-.1-.5-.2.1.4.2.4L21 26l-1.1-.5-.3.2-.4.1v1l-.2.2-.3.3V29L19 30l.4 1.2-.1.3-.1.4h-.5v.6l1 .4.8.4v.5l.6-.6.6-.6zm16.2 1l.2-.2-.6-.2-.6-.2-.3-.4-.4-.4-.2.2-.2.2.4.3.4.2h-.5l.5.4.5.4h.7l.1-.2zm.3-1.5v-.2l.2-1.8.2-1.9.1-.5v-.5l-.2-.4-.3-.4.4.2.3.2-.2-.7-.1-.7.2.2.3.1v-1.1h-.4l-.4.9-.3.9v.2l.1.3v1L39 30v2.4l.1-.2.2-.2v-.2zm-4-7.4v-3.1l-.3-.6-.2-.7.8.5.8.6.7.3.8.3.1-.1.2-.2-.5-.5-.4-.4v-2.3l-.4.3-.4.4-.4-.4-.3-.4-.3-2.7-.2-2.7-1.3-.1-1.3-.1-2.3-.7L28 11h-.8l.7.9.6.8.4 1 .4 1-.7.6-.6.7.4.7.5.7H30l.9 1 .8 1-.3.1-.3.2-.6-.1-.6-.2V19.8l.1.4.2.3h.8l.8-.2-.2 1-.2.9h.6l.5.2.1-.3.1-.3v1.8l-.1 1.8.2-.1.3-.2v.8l.4.6.5.5h.9l.2.3.1.2H35.5zm-14.2.1l-.3-.4-.1.1-.1.1.2.3.1.3h.6zm20-7.8v-.8l-.1.2-.2.2-.2.7-.1.8.2-.2.2-.1zm-7.4-8.4l-.4-.1H33l-.3.2H34zM6.2 30v-1.3.7l.2.8-.1.6-.1.6zM3.5 10l.7-1 1.3-.1L7 8.7l-.2.3-.1.3-1.1.8-1 .7H2.8zm13.2-.4l-.3-.3v-.5h.7l.3.4.3.4-.3.1-.4.1zM2.7 8L1 7.9v-.1l-.2-.1 1.8-1.9 1.7-1.9V1.8l.7.1.6.2 2 .2 1.9.1.8.1.9.2-1 1.6L9.4 6v.7l.4.5.4.5h-.3l-.4.2-1.6.3-1.6.2H4.6zm12.9 0l-.1-.1-2.2-.1H11v-.6l-.4.3-.3.4-.2-.4-.1-.4.2-.2h.2l.3.1.4.2 1-.2.9-.2.2.1.2.2-.1.2-.1.2 1.2-.1 1.2-.1.1-.1.1-.1.5.2.5.3v.5h-1.2zm24-.5l-.1-.6-.3-1.8-.3-1.8v-.1l.2-.1 2 2.2 2.1 2.3h-.1L43 8l-1.6.2-1.7.2zm-26.9-4l-.6-.7h2.8l-.5.4-.5.4-.3.2-.2.2-.7-.6z"/>
  <path fill="#e2e5e9" d="M5.8 52.5v-1.8l-1-8.4-1-8.3-1.4-10.2-1.3-10.2-.1-1-.2-1L.7 10 .5 8.6l.2.3.3.2.3 2.1.3 2.2.1.8.1.7.2 1.2.1 1.2.3 1.5.2 1.4.3 1.9.2 1.8.2 1.1.1 1 .2 1.3.1 1.1L4 30l.2 1.5.3 1.5.3 1.5.2 1.5.3 1.5.1.4.2.4.2-.4.3-.3-.2-.3-.2-.3v-.6l-.1-.6.4.1.4.2v-.8l.5.2.5.1.3.7.2.6-.1 2.2-.2 2.1v.9l-.1.9.5.6.5.7h-.4l-.5.6-.5.7 1.2.5 1 .5 2 1 1.7 1.1.8-.2.8-.2.9.6.8.7h.6v-.8h.8l.8-.2-.2.3-.1.2.4-.1.4-.2v.6l.5.4.6.4v-.7L19 48.2l-1.1-1.3-1.1-2-1-2-.2-.2h-.2v.8l.3.2.3.2h-2l.2-.4.1-.3-.4-.9-.5-.8-.2.3-.2.4.4.2.5.1-1 .3-.9.3-.6.1-.7.2-.3-.2-.3-.2-.3-.7-.3-.8h.6l-.1-.1-.2-.2.4-.8.5-.7-.3-.3-.3-.3.1.6.2.6-.3-.2-.3-.2v-.7h-.5l.1.4.2.5-.3-.4-.3-.4.2-.2v-.2h-.5l.3-.5.4-.4-.3.2-.3.2-.1-.6-.2-.5.3-.1.2-.2-.3-.5-.3-.5h1.1l-.2.8-.3.7.4.2.4.1-.2.4-.1.4.2.1.3.2.6-.8.7-.8H11l-.2.3-.1.2h-.7V37l-.1-.8h.6l-.2.4-.1.4.2.2.3.1v-.8l.2.1.3.2-1-2-.9-2.1.5-1.5.5-1.4-.1-.2v-.2h.5V29l-.8-.5-.8-.4v-.5l3.6-1.3 3.7-1.2v.3l.1.3.3-.2.3-.2-.2.3-.2.3.3 1 .3.9.3-.2.2-.1.2.8.2.8.2.2.2.1v1l.6.4.6.4H19l.1.4v.3H19l-.4-.1v1l-.6-.2-.6-.2-.6.2-.5.3-.2.4-.1.3.2-.1.3-.2v.5l1.3.1 1.4.2.1.1.2.1.1 2 .2 2-.2.3-.1.2-.1.8-.1.7-1.2.2-1.2.2h2l.6-.2.5-.3.2.1.1.2.2 4 .1 4 1-2 .8-2.2.3-.3.4-.4 1.6-.2 1.6-.2.2.3.1.2-.2-.1-.3-.2-.3.7-.3.6.3.2.2.1V50l.6-1 .5-.8 1.3-1.4 1.2-1.3.6-.6.5-.6-.3-.1-.4-.2v-.8l-.5.1-.5.1.1-.3.1-.4.6.2.6.3v.6l.3.1.3.1v-1.2h.4l.6-.2-.4.5-.3.4v.3l.2.4-.3.4-.4.4.7 1.3.6 1.4H32.3l-.1-.4-.2-.4.2-.4.1-.4.3.2.2.1-.1.4-.2.3.4-.5.4-.5-.3-.6-.3-.6.4.4.4.3v-3.7l-.2.2-.3.2.2-.4.2-.4V41l.1-.4h-.7v1.3h-.5l-.5-.1.4-.5.4-.5-.2-.1-.5-.3-.5-.3h2.3v-.4l-.2-.6-.2-.6h.6l.6-.2v-.4l.2-.4-.2.4-.3.3-.3-.4-.3-.3h.8l.8.2-.1-.3-.2-.2.3-.5.3-.5-.1-.5-.2-.4h-.6l.2.5.1.5-.3.2-.3.2.2-.5.2-.4h-.4l-.3.2v.6l.1.6-.5-.1-.5-.2.1.3.2.2h-.6l.2.4.2.5-.3-.2-.3-.2-.6 1-.5 1.1-.5.3-.5.3h-3.7l-.1 1.2-.1 1.3-.6-.6-.7-.7h-.8V41l-.2-.3-.3-.3-.2.2-.3.1.1-.2.2-.3-.5-.4-.5-.5-.1.2-.2.2v-.9h-.3l-.4.1v-.3l.2-.3h-.5l-.2.4-.1.4-.2-.1-.1-.2.3-.5.3-.6H21l-.3.2-.1.7-.1.7h1.2l-.4.3-.5.3-.3-.2-.4-.1-.2-.7v-.6h.4l-.2-.4-.3-.3v-.3l.1-.4.1-.2V35.2h.6l-.2.2-.1.3.2.1.3.2v-.9l.5-1.3.4-1.3h.5l-.2.5-.1.4.2-.2.2-.1.2.3.1.3V33l.3.2.3.2v-.8l-.3-.1-.4-.2h1.1l.4-.4.3-.3-.2.4-.2.4.4-.2.5-.2v.8H25.2l.5-.4.4-.4.5-.1.5-.1h.4l-.2-.5-.1-.4.5-.4.5-.5h.4l.4-.1.7-.3.7-.3v-.7l.2-.3V27l.6.2.5.1v.4l-.3.2h-.3.9V28.1l1-.1.9-.1V29l-.3-.1-.3-.2.2.4.2.5.3-.5.3-.5.2-.4.1-.5-.3.1-.4.2-.1-.3-.2-.3-.4.2-.4.1.2-.4.1-.4h.5l.2.3.1.3.3-.4.2-.3.6.3.5.4-.1-3.2-.2-3.1-.2-.6-.2-.7.8.5.8.6.7.3.8.3.1-.1.2-.2-.5-.5-.4-.4v-2.3l-.4.3-.4.4-.4-.4-.3-.4-.3-2.7-.2-2.7-1.3-.1-1.3-.1-2.3-.7L28 11h-.8l.7.9.6.8.4 1 .4.9-1 1-1 1.1 1 2.1 1.1 2.1.1.1v.1l.9-.4.8-.4H31.5v1l-1 2.9-.9 2.8-.2.4-.2.3-1.4-.4-1.4-.4.2.3.2.2h-.6l-.2.6-.1.6-.4.4-.4.3.2-.7.2-.8V27H26l-2-.8-2-.7v-.3l-.2-.3.8-.3.8-.3v-.6l-.3-.7-.4-.6v.6h-1l-.3-.3-.2-.2-.7 1.2-.6 1.2h-.8l-.7-.1v-.4l-.4-.2-.4-.1.4.7.5.7-.3-.2-.3-.2v.4l-.2.3v-.5l.1-.4h-1l.1-.5.2-.5-.8-.4-.8-.5-.3.2-.2.1-.2-.4-.1-.4-.3.1-.2.2v-.9l.4-.7.4-.8h-.6l.2-.3.2-.3.2.2h.2l.6-1.3.6-1.3V17l-.1-.2.3.1.4.1.5-.3.5-.2 1.6-.1h1.8l.1-.1v-2.7l.1-.2 1 .5 1 .5 1.2.2 1.1.2-.1-2.3-.1-2.3-.6-.4-.6-.4v-.7l.8-.2.7-.2h.3l.2.1h.8l.8-.1-2.3-.2-2.2-.2h-4.1l-.6-.4-.6-.4-1.4-.1-1.4-.2-.4-.3-.4-.3v-.7l.7-1.3L16 3l.3-1.2.3-1.3h.4l1 .8 1 .7.4.5.4.4h3.4v.4l-.4.5-.4.5-.2-.2L22 4l.1.5.2.5-.4.7-.5.6V7h2.2l1.1-.6 1-.6.3-.7.3-.7-1-.9-1-.8v-1H26L27 2l1.2.4 1.2-.1 1.2-.2.6-.1.7-.2.2.6.1.5h4.6v.6l.2-.2.3-.2v.2L37 5.6l-.4 2.2V8h-1.9v.3l-.2.2 1 .2 1.1.1.2.4.1.4.4.1.4.2 1.3-.3 1.3-.3v-.5h1.1l-.2.8-.2.7-.2.3-.1.2V15.4l.2.1.2.2.1-.1.1-.1.2-1 .2-1.1v-.7l.2-.7.1-1.2.1-1.1.1-.4.1-.4.3-.2.2-.2h.9l-.6 4.8-.7 4.8-1.2 9.2-1.2 9-.8 6.3-.8 6.2v5l-.2.4H5.9zM7.7 44v-.5l-.8.1-.8.1v.4l.3.2.3.1h1zm3.7-3.5v-.3h-.6v.5h.6zm2 0v-.2l-.5.1-.6.2.2-.5.2-.4-.4.2-.4.1v.4l.3.2.4.1h.6l.1-.2zm22.8-1.3l-1-.7v-.8l-.3.4-.2.4V38.8l.8.6.9.5h.7l-1-.7zm2.6-4.6v-.3l-.2.6-.2.6.3-.2.3-.3zm-14.5-1.8l-.4-.5-.2.1-.1.2.4.5.5.4.2-.1zm14.7.6l.2-.3-.6-.2-.6-.2-.3-.4-.4-.4-.2.2-.2.2.4.3.4.2h-.5l.5.4.5.4h.7l.1-.2zm-11.5-1.1V32H27v.5h.5zm11.8-.5v-.2l.2-1.8.2-1.9.1-.5v-.5l-.2-.4-.3-.4.4.2.3.2-.2-.7-.1-.7.2.2.3.1v-1.1h-.4l-.4.9-.3.9v.2l.1.3v1L39 30v2.4l.1-.2.2-.2v-.2zM36 30.3V30l-.4.2-.3.1.1.3.2.2h.4zm-.4-1.4v-.3l-.3-.2-.3-.1v.8h.6zM41 16.7v-.8l-.1.2-.2.2-.2.7-.1.8.2-.2.2-.1zm-7.4-8.4l-.4-.1H33l-.3.2H34zm-1 35.7l-.4-.1v-.5L32 43l.6-.2.5-.3v.7L33 43l-.2-.2v.8l.3.3.3.3h-.2zm-8.5-1.4l-.2-.3h.9v.6h-.5zm6.5-2l.6-.3h.3l.2.2-.2.2-.1.2h-1.4zm1.8-1.1v-.3h.8v.5h-.8zm-12.7-4.8l-.2-.1V34l.3.3.3.4h-.1l-.2.2zM6.2 30v-1.3.7l.2.8-.1.6-.1.6zm26.7-3.5l-.1-.3h.8v.5h-.5zm-17.8-2.7v-.2l.4.1.4.2v.2H15zm1.8-7.3l.3-.1h.3l.4.2h-1.4zm1.3-.5l.3-.2.4.2.3.1H17.9zM3.5 9.9l.7-1 1.3-.1L7 8.7l-.2.3-.1.3-1.1.8-1 .7H2.8zm13.2-.4l-.3-.3v-.5h.7l.3.4.3.4-.3.1-.4.1zM2.7 8L1 7.9v-.1l-.2-.1 1.8-1.9 1.7-1.9V1.8l.7.1.6.2 2 .2 1.9.1.8.1.9.2-1 1.6L9.4 6v.7l.4.5.4.5h-.3l-.4.2-1.6.3-1.6.2H4.6zm12.9 0l-.1-.1-2.2-.1H11v-.6l-.4.3-.3.4-.2-.4-.1-.4.2-.2h.2l.3.1.4.2 1-.2.9-.2.2.1.2.2-.1.2-.1.2 1.2-.1 1.2-.1.1-.1.1-.1.5.2.5.3v.5h-1.2zm24-.5l-.1-.6-.3-1.8-.3-1.8v-.1l.2-.1 2 2.2 2.1 2.3h-.1L43 8l-1.6.2-1.7.2zm-26.9-4l-.6-.7h2.8l-.5.4-.5.4-.3.2-.2.2-.7-.6z"/>
  <path fill="#dae3e8" d="M5.8 52.1v-2l-1-8.4-1.1-8.3v-1.5l.4 1.6.3 1.6.2 1.3.2 1.3.1 1 .2 1.1.2.7.2.6.1.8v.8l.4.5.4.5h-.6v.4l.7.2.6.2v.7l-.6.3-.5.3.5-.2.6-.1 2.3 1.2 2.4 1.2.7.5.7.4.8-.3.8-.3.5.6.4.5-.3.1-.3.1v.8h.6l.6-.2.6-.2v-1l.4-.1.4-.2.8.4.7.4.4.5.3.4h.5v-.8l-1-1-1-1-1-1.7-.8-1.7-.5-.7-.5-.7h-1.4l-.4-.6-.5-.6-.1.3-.1.4-.5-.4-.5-.4.2.4.2.3-.4-.1-.3-.1v-.4l.1-.3-.4.2-.3.1-.4-.4-.3-.4h.9v-.5h-.9l.3-.2.4-.3h-.5l-.5-.7-.4-.6h.2l.2.1.6-.6.6-.6h-.2l-.8.4-.7.4-.2-.2-.3-.1.3-.3.3-.3v-1h.6l-.2.4-.1.4.2.2.3.1v-.8l.2.1.3.2-1-2-.9-2.1.5-1.5.5-1.4-.1-.2v-.2h.5V29l-.8-.5-.8-.4v-.5l3.6-1.3 3.7-1.2v.3l.1.3.3-.2.3-.2-.2.3-.2.3.3 1 .3.9.3-.2.2-.1.2.8.2.8.2.2.2.1v1l.4.3.4.3-.1.4v.5h-.4l-.3-.1v1l-.6-.2-.6-.2-.6.2-.5.3-.2.4-.1.3.2-.1.3-.2v.5l1.3.1 1.4.2.1.1.2.1.1 2 .2 2-.2.3-.1.2-.1.8-.1.7-1.2.2-1.2.2h2l.6-.2.5-.3.2.1.1.2v5.1l.1 1.6v1.6l.3-.3.2-.2 1-2.2.8-2.1.6-.2.7-.2 1-.1 1-.2v.5l-.3.3-.3.3.2.5.2.5v4.9h.2l.7-1.2.7-1 1.5-1.7 1.5-1.7H30.6l.6 1.3.5 1.3v.6l.5-.1.5-.2.8.4.7.4.1-.1h.1l-.2-1.1-.3-1v-2.4l-.1-2.4-.1-.4-.2-.5h-.7v.6l-.6.4-.6.4.5-.6.5-.6-.2-.1-.5-.3-.5-.3h2.3v-.4l-.2-.6-.2-.6h1.2l-.4-.5-.5-.5h1l-.1.7v.7l.8.6 1 .5 1 .3 1.2.3v-.1l.2-.1.4-2.6.4-2.6v-.4l.1-.4-.1-.2-.1-.2-.8.4-.7.5-.3 1-.3 1 .2.3.1.2h-.5v.8l.3-.2.2-.1v.5l-.3.2-.3.2.1.4.2.3h-.8l-.3-.5-.2-.5h-.7v-3l-.3-.2h-.4l.2.5.1.5-.3.2-.3.2.2-.5.2-.4h-.4l-.3.2v.6l.1.6-.5-.1-.5-.2.1.3.2.2h-.6l.2.4.2.5-.3-.2-.3-.2-.6 1-.5 1.1-.5.3-.5.3h-3.7l-.1 1.2-.1 1.3-.6-.6-.7-.7h-.8V41l-.2-.3-.3-.3-.2.2-.3.1.1-.2.2-.3-.5-.4-.5-.5-.1.2-.2.2v-.9h-.3l-.4.1v-.3l.2-.3h-.5l-.2.4-.1.4-.2-.1-.1-.2.3-.5.3-.6H21l-.3.2-.1.7-.1.7h1.2l-.4.3-.5.3-.3-.2-.4-.1-.2-.7v-.6h.4l-.2-.4-.3-.3v-.3l.1-.4.1-.2V35.2h.6l-.2.2-.1.3.2.1.3.2v-.9l.5-1.3.5-1.3.4.6.5.6V33l.2.2.3.2v-1.1h.4l.6-.1.6-.1v.7H25.2l.5-.4.4-.4.5-.1.5-.1h.4l-.2-.5-.1-.4.5-.4.5-.5h.4l.4-.1.7-.3.7-.3v-.7l.2-.3V27l.6.2.6.1v.4l-.4.2h-.3.9V28.1l1-.1.9-.1-.2-.2-.1-.3-.4.2-.4.1.2-.4.1-.4h.4l.3.3.3.3-.2.8v.7l-.3-.1-.3-.2.2.4.2.4.3-.4.3-.4.5.2.5.2H35.6v1h-.5l.3.3.4.3.1-.4.2-.4.4 1.5.5 1.4.6.4.7.4.6-.2.7-.2.2-1.3.1-1.4.2-1.4.1-1.3.1-.5.1-.6.2-2.7.2-2.8.4-2.1.3-2.1.5-2.7.4-2.6V11l.1-.8v-.7l.1-.7.4-.2.5-.1-.2 1.5-.2 1.5v.5l-.2.6-.2 1.7-.2 1.7-1 7.8-1 7.8-1.2 9.3-1.2 9.2.2 1.4.1 1.4-.1.7-.2.6H5.8zm31.6-4.5l.1-1h-.4l-.1 1-.1 1v.2l.2.2.1-.2h.2zM7 46.8v-.2h-.6v.8l.3-.2.3-.1zm6.4-6.3l.2-.2-.6.1-.6.2.2-.5.2-.4-.4.2-.4.1v.4l.3.2.4.1h.6l.1-.2zm11-7.7l-.4-.5-.2.1-.1.2.4.5.5.4.2-.1zm3.2-.5V32H27v.5h.5zM7 41l-.3-.5V40l.4.6.5.6-.1.1-.1.1zm23.8-.4l.6-.3h.3l.2.2-.2.2-.1.2h-1.4zm-23.6-.8l-.1-.5v-2.8H6.1l.3-.5.3-.6.4.1.4.1v2.6l-.1 1-.1 1.1-.2-.5zm25.4-.3v-.3h.8v.5h-.8zM9 36.7l-.2-.5.1-.1.2-.2.2.1.3.1-.2.5-.2.6zm10.9-2l-.2-.1V34l.3.3.3.4h-.1l-.2.2zm17.7-3l-.4-.4-.3-.9-.4-.8H36.1l-.4-1-.3-1 .1-1.6.1-1.5-.2-1.9-.2-1.8.1-.1.1-.1 1 .5 1 .6 1.2.2 1.2.2.2.4.3.4-.5 1-.5 1-.9 1.4-.8 1.4v.6l.2.7.2.4v.5l-.2.1-.2.2.2.9.2 1h-.1zm-34-.6v-.8l.1.5.1.4v.4l-.2.3V31zm21.8-2.4l.2-.8V27H26l-2-.8-2-.7v-.3l-.2-.3.8-.3.8-.3v-.6l-.3-.7-.4-.6v.6h-1l-.3-.3-.2-.2-.7 1.2-.6 1.2h-.8l-.7-.1v-.4l-.4-.2-.4-.1.4.7.5.7-.3-.2-.3-.2v.4l-.2.3v-.5l.1-.4h-1l.1-.5.2-.5-.8-.4-.8-.5-.3.2-.2.1-.2-.4-.1-.4-.3.1-.2.2v-1l.4-.6.3-.7-.1-.4-.2-.3.4.2.3.2-.1-.5-.2-.4.2.1.2.2.5-1.1.5-1.2v-.2l-.1-.2.3.1.4.1.5-.3.5-.2 1.6-.1h1.8l.2-.1v-2.1h1.2l1.3.4 1.2.4.3-.2.2-.3.2-.6.1-.6.1-.7.2-.8-.3-.1-.3-.2V11l.4.4.3.5h.9l.5.5.5.5.3 1 .4 1-1 1-1 1 1.2 2 1 2.1.1.1v.1l.9-.4.8-.4H31.5v1l-1 2.9-.9 2.8-.2.4-.2.3-1.4-.4-1.4-.4.2.3.2.2h-.6l-.2.6-.1.6-.4.4-.4.3zm2.2-16.2l-.3-.3-.2.1-.3.2v.4h1.1zM15 23.8v-.2l.4.1.4.2v.2H15zM2 21.6v-.8l.2.4.1.5-.1.3-.1.4zm36.4-.1l-.3-.2v-1.9l.1-1.8.2-.9.2-.8h.5v-1.2l.1.2.2.2v2.6l-.1-.3-.2-.3-.1.3-.1.2v2h-.1v.1l-.2.8-.1.7.3.3.4.2h-.5l-.3-.2zM18.2 16l.3-.2.4.2.3.1H17.9zm15.4-3.8l-.7-.2V11l-.1.1-.3.1.2-.4.2-.4.1.1.2.1.5-.2.6-.2h-1l-.8.2.1-.3.1-.3h.8l.7.1-.1-.5-.2-.5.5-.2h.6l.8.2.8.3.3.3.3.4 1.1.3 1.2.3-.8.6-.7.6H36.3l-.5.4-.5.4h-1l-.7-.2zm-1.7-1.6v-.8l.2.2h.2v1.4h-.4v-.8zm-4.6-1.3l-.3-.6h2.2l-.6.4-.6.2v.5h-.5zM2.5 8H.8l1.7-2.1 1.7-2V2.2l.2-.1.1-.2 1 .2 1 .2 1.8.2 1.9.1h1l-.7 1-.7.8-.4 1.2L9 7v.8l-.5.2-.5.3H6L4.1 8zM15 8l-.7-.1.1-.2.2-.3H16l.4.2.4.1v.5h-1.2zm7 0l-2.7-.2-.3-.3-.3-.4H17L16 7l-1-.3-.2-.3-.1-.4.8-1.7.7-1.7.2-.8.2-.9.2-.1.2-.2 1.5 1.2L20.1 3h.2l1 1 1 .8-.5 1-.6 1.1.7.2.8.1 1-.3 1-.2.8-.7.7-.7V4l-1-.7-.9-.7v-1H25.6l1.2.4 1.3.4 1.4-.1 1.3-.2.6-.1.5-.2.3.9.3.9.2 1.4.2 1.5V7h.4l.4-.5.4-.6.3.7.3.7-.1.4-.2.4h-10zm17.7-.1l-.4-2.3-.4-2.3h.1l.1-.2 1.7 2 1.6 2 .4.3.3.3V8h-3.4zm-5.9-5H35.5l.9.2h-3.5z"/>
  <path fill="#d5dde3" d="M5.8 51.7V49l-.3-1.7-.2-1.8-.4-2.9-.4-2.8v-1.4l.1.2h.1l.4 2.4.5 2.4v.7l.2.6L6 47l.2 2.2v.1l.5-.3.5-.3-.3-1.5-.2-1.4.2-.2.2-.2 2.2 1.1 2.2 1.2.9.5.8.5.8-.3.7-.3.3.3.2.3-.5.6-.5.6h-.7l-.7.2H16l.6-.1.6-.2-.1-.4-.2-.5.3-.2.3-.1.9.4 1 .4.3.6.4.5.4-.3.4-.4.5-.8.4-.8-.6.4-.5.5h-.5l-1-1.2-1-1.1-1-1.8-1-1.8-.5-.9-.6-.8.2-.1.2-.1h1l1.2-.1 1-.4.9-.4h.5V47l.2.9.1.8h.4l1-2.3.9-2.3 1.2-.2 1.2-.2.3-.2.3-.1v.4l-.3.4-.2.4.2.3.3.3V50.5h.2l.5-.9.5-.9 1.5-1.8L30 45h.3l.2.2 1 1.7.8 1.8h.2l-.1-.5-.2-.6h.5l.6.4.7.4h.6l-.2-.8-.3-.9-.1-3.5-.2-3.6V39l-.2-.5H33.9l1.2.8 1.3.8h1.2l.5.3.6.3.1-.2h.2l.4-3.3.5-3.3v1.4l-.8 6.3-.8 6.3v5.4l-.2.8H5.9v-2.5zm32-3.2V48l.1-.8.2-.8.1-1.4.2-1.5.1-.7.2-.7H38.4l-1 1.6-1 1.6v2l-.3.2-.1.2.7.8.7.7.2-.1.2-.2v-.4zM6 44.7l-.3-.6.6.2.6.2.1.1h.1L7 45l-.2.2H6.5zm19.7-2.5l-.8-.7-1.4-1.3-1.4-1.3H22l-.2-.1v-.2l.2-.2h-.5l-.2.3-.1.3v-.5l.2-.6H20v-.7l.3-.4.3-.3.2-.7.2-.7.2-.4.3-.3.2.1.2.2.7-.3.6-.3.1-.3.2-.2h.5l.6-.1-.1-.4-.1-.3h.8l.7-.5.7-.6.3.4.3.4H27.5l-.1-.9-.2-1L29 30l1.7-.8V27.8l.5.2.6.1-.4.3-.3.2.5-.2.5-.1.5-.2h.4l.4.9.5.9h.5l-.2.4-.1.4h.3l.4-.1V31.8l.1.4 1.9.9 1.8.8.3-.2.3-.1v.2l-1.1.6-1 .6V35.3h-1.3l-1.2-.2-.3.5-.4.5.1.5.2.5-.6-.2-.6-.2.2.3.2.3h-.6l.2.4.2.5-.3-.2-.3-.2-.6 1-.5 1.1-.5.3-.5.3h-3.7l-.1 1.2-.1 1.3zm-12.1-1.6l-.4-.4h-.4l-.3.1V40l.1-.3h-.6l.2-.3.2-.3-.4.1h-.3v-.9.2l-.2.1-.4-.4-.4-.4.3-.2.3-.2-.4-.2-.4-.1v-.6l.2.1.3.2-1-2-.9-2.1.5-1.5.5-1.4-.1-.2v-.2h.5V29l-.8-.5-.8-.4v-.5l3.5-1.2 3.6-1.3H16.4l.4 1.3.4 1.3.4.2.5.2-.2.7v.8h.7l-.4.4-.3.5.3-.1.4-.1.2.7.2.7h-.5v1.1l-.6-.2-.6-.2-.6.2-.5.3-.2.4-.1.3.2-.1.3-.2v.5l1.3.1 1.4.2.1.1.2.2.1 1.8.1 1.8.3.3.3.4-.4-.1-.3-.1-.2 1-.1.8-1.3.1-1.2.1v.2l.2.2h-2.3l.1-.2.1-.2H14l.2.2.1.3h-.2zm-9.4-3.3v-1.2l.1.6.1.6v.6l-.2.6zM6.6 36v-.4h.5v.5L7 36l-.3.2zM4 35.5v-.7l.1.3.2.4-.2.3v.3zm36-1.8l-.2-.1.2-1.5.2-1.5.2-1.1.1-1 .1-1.1.2-1 .2-3.2.3-3.2.2-.8.3-.8v-.8l.1-1.3.2-1.4.3-1.7.3-1.7v-1l.2-.2V8.7h.5V10l-.3 1.3-.2 1.3-.8 6.7-.9 6.8-.5 3.8-.5 3.8-.1.1h-.2zM36 29l-.3-.6v-6l-.2-.8-.3-.8 1.3.7 1.3.6h.8l.7.1.5.3.4.3-.2.7-.3.8-1 1.2-.8 1.3L37 28l-.8 1.4zm-8.4-1.5l-1.1-.4v.5h-.9l.1-.3.1-.3-1.8-.7-1.9-.7v-.3l-.2-.3.8-.3.8-.3v-.6l-.3-.7-.4-.6v.6h-1l-.3-.3-.2-.2-.7 1.2-.6 1.2h-.7l-.8-.4-.8-.4.2.4.2.4-.5-.2-.4-.2V24l-1.5-.7-1.4-.8v-.5l1.2-2.3 1.1-2.3.7-.3.7-.3h3.7V16l.1-.6h.5l.4.1.2-.3.2-.2.3.2.3.2 1.2.2 1.3.1.2-.2.3-.3h.5l.6.2-.4.7-.4.7.3.2.2.1 1 2 1 1.8v.2l1-.4.8-.5.1.2.2.1-.4 1.4-.3 1.4-.8 2.2-.8 2.2h-.6l-1.1-.4zm5.6-16l.2-.7.1-.1.1-.1.3.4.2.3V9.8h.6l-.2-.3-.1-.2h.7l-.6-.3-.5-.3 1.1.1 1.1.1.7.6.7.5.8.2.8.2V10.7l-1 .5-1.1.5-.3-.2-.3-.2-.7.5-.6.4h-2zM3.3 8l-1-.2-.8.2-.8.1 1.7-1.9L4 4.2h.4l.2.7.2.7.5-.5.6-.5.3.5.3.5.8 1 .9 1v.6H4.4zm12 0l-.9-.1 1-.2.8-.2.4.4.4.4h-1zm8.4.1l-1-.1.2-.3.2-.3-.4.2-.3.3h-1.2L20 8l-.9-.5-.9-.5h-2.5l-.5-.5-.4-.5.6-1.3.7-1.4.3-1.2.3-1.2.2-.1.3-.2 2.3 2 2.3 1.8.3.2.2.3-.5 1-.6 1 .1.2.2.1h2l.8-.4.8-.4.7-.8.7-.8v-.4l-1.1-1-1-1V2l.4-.2.5-.1.8.3.7.2 1.1.3 1.2.2 1.2-.4 1.3-.3h.1l.3.5.3.6.3 2 .2 2h.1l.2.2.5-.5.6-.5.2.4.3.4-.1.5v.6H23.6zm15.9-1l-.2-.8-.2-1.4-.3-1.5h.1l.1-.2 1.3 1.7 1.4 1.7.5.5.6.6-.2.2-.2.1h-2.8z"/>
  <path fill="#d4dadb" d="M6 54l-.2-.1v-4l.7-.5.6-.5v-1.4l-.2-.9-.2-.8h1.1l1.7 1 1.7 1 .8.4.7.5 1-.1 1.1-.2v.9l-.6-.2h-.7v.6h-1.1v.6H16l.6-.2.6-.2-.1-.5-.2-.5H18.2l1 .9 1 .8.3-.2.4-.1.4-.8.4-.9-.1-.1-.2-.2-.2.4-.3.4v-.8l.8-1.7.8-1.6h.7l.2.4.2.5.6-.7.6-.7H25.1v.7h.5v5.4l.3.1.3.1v-.7l.7-1 .7-1.1 1.4-1.6 1.4-1.5.8 1.7.8 1.8.3.1.2.2v-1.1l.6.3.6.4.5.2.5.2-.2-.9-.2-.8-.1-4-.2-4 1.4.7 1.4.8h1l.4.1.4.2v.6L37 44.2l-1.7 2.7 1 1.1.9 1.2.5.3.5.4v4.3h-32zm17-8v-.2h-.5l-.1.2-.2.2h.8zm-3.8 2l-.8-.8-1.2-2.4-1.2-2.3-.4-.5-.3-.5h2.2l1-.4 1.1-.4.2.2.3.2v4l.1 3.8H20zM6.2 45l-.1-.5h1.1l-.1.4-.1.3h-.3l-.3.2zM24 40.5L21.4 38l-.2-.2-.3-.1V37l.1-.6.1.2h.2l.6-.5.6-.6-.2-.2-.2-.3.3.2.3.1 1.7-1.7L26 32h1V33.3h.9l-.3-.1-.3-.2v-.5l.3.1.4.2-.4-.8-.4-.8.1-.2v-.3l2.7-1.3 2.7-1.3.3.2.3.3.9 2 .9 1.9 1.6.7 1.6.8-.3.2-.3.2-1 .2-.8.3-1 .1-1 .2-1.1 2.3-1.2 2.2-.5.4-.5.4h-3.8l-.1 1.2-.1 1.3-2.6-2.5zm-10.8-.3l-.4-.2-.8-1.4-.8-1.4-1-2.3-1-2.3.5-1.4.5-1.4.2-.4.2-.4-.8-.5-.8-.4v-.5l3.6-1.2 3.5-1.2.3.3.2.3 1 2.9 1 2.9v1.2l-.7-.2-.6-.3-.5.3-.6.2-.1.4-.2.4.8.2.8.3h1.8l.2 1.2.1 1.3-.1 1.7-.2 1.7-.1.3-.2.2h-5.4zm12.2-13.6l-3.3-1v-.4l-.2-.3.8-.3.8-.3v-.6l-.3-.7-.4-.6v.5h-1.1v-.4h-.5l-.6 1.2-.6 1.2h-.7l-2.4-1.2-2.3-1.2-.2-.3-.1-.2 1.2-2.4 1.1-2.3.9-.3.8-.3h7.9l.6.2.7.3 1 2 1 1.8v.2l1-.4.8-.5.1.2.2.1-.4 1.4-.3 1.4-.8 2.2-.8 2.2h-.6l-3.3-1.2zm12.1-1V25l.2-.7.2-.6-.4.5-.3.6h-.8v-.6h.6v-.4h-.8l.3-.4.3-.4-.2-.2-.1-.3-.3.1-.3.2.5-.4.5-.5 1.2.2 1.1.2.4.1.4.1v.8l-1 1.3-.8 1.3h-.6zm4-4v-.8l.3-1 .2-1.1V20l-.2 1.2-.2 1.2v-.8zm.6-4.1v-.7l.1.3.2.4-.2.3v.3zm-7.9-5.8v-.3h.6l.5.1v.3l-.1.2h-1zm3.6-1.1l-.2-.5.4.1.3.2-.1.3-.2.4h-.1zM3.8 8L3.2 8v-.8h-1l.5-.3.5-.4-.3-.1-.4-.1.8-1 .8-1 .5 1 .4 1 .2-.6.2-.6H6l1 1.4 1 1.4.2.2v.2H4.3zm12 0l-.6-.2.4-.2.3-.2.4.1.4.2v.5h-.4zm8.7-.1l-.4-.3v-1h.6l.7-.6.8-.7.1-.5.2-.5 1.3-.5 1.2-.4 1.3-.8 1.3-.8.3.5.3.4.2 1.5.2 1.5.1.7.2.7h.4l.4-.4.4-.3h.2l.2.7.2.7-.4.2-.3.2h-9.1zm15-1.2l-.1-1.3-.2-1-.3-1h.5l.9 1.2 1 1.2-.4 1-.2 1.1h-1zm-24.3-.4l-.4-.4.6-1.3.7-1.4.3-1.2.3-1.2h.8l1.9 1.5L21.3 4l.5.5.5.6-.6.9-.6.8h-5.5z"/>
  <path fill="#ccd5d9" d="M6 54l-.2-.1v-3.7l.8-.9.8-.8-.3-1.2-.3-1.3.2-.2.2-.2 2.1 1.2 2.2 1.1.7.5.6.5-1.4.7-1.3.7v.1h6.2l.7-.4.6-.3-.3-.2h-.4v-.6h1.4l1 1 .9.9h.4l.4-.6.5-.6.1.3.1.4.3-.2.2-.1 1.5-.1 1.5-.1.1.5.2.5h.6l.4-.8.4-.8 1 .1 1 .1-.4-.2-.5-.3.3-.2.4-.3h.4l-.2.3-.1.3.3-.2.4-.2h.6l.7-.2.3-.4.3-.3.5.8.5.8.1-.7V48h.4l.7.4.7.4h.4l-.2-1.4-.2-1.3.6-.4.7-.5-.8-.3-.8-.3h1.1l.2-.4.1-.3v.9h.5l-.1-.5v-.4.3l.2.4.5-.6.4-.6V43l-.1-.2.2.2.3.2-.7 1-.8 1.2-.4.8-.4.8 1.5 1.6 1.6 1.5v4.1h-32l-.1-.1zm13.3-6l-.7-.8-.4-.8-.5-.8h.8v.4l.7-.2h.6l.2.8.2 1-.1.5-.1.6zm-1-2.7l-.4-.3-.2.1-.2.1-.7-1.4-.7-1.3-.4-.5-.4-.5h2.2l1-.4 1-.4.3.2h.3v2.2h-.6l.1.8.2.8h-.6l-.3.4-.2.4zm-12-.6v-.3H7v.6h-.5zM24 40.5L21.4 38l-.2-.2-.3-.1V37l.1-.6.2.1.1.2 2.4-2.4L26 32h.9V33.3h.9l-.3-.1-.3-.2v-.5l.3.1.4.2-.4-.8-.4-.8.1-.2v-.3l2.7-1.3 2.7-1.3.3.2.3.3.9 2 .9 1.9.9.4.9.5-.4.2-.3.2.1.4.2.4-.5.2h-.4l-.9.3-.8.1-1.1 2.3-1.2 2.2-.5.4-.5.4h-3.8l-.1 1.2-.1 1.3-2.6-2.5zm13.6 1.8V42l.4-.5.4-.5v.8l-.4.5-.4.5zm-24.4-2l-.4-.3-.8-1.4-.8-1.4-1-2.3-1-2.3.5-1.4.5-1.4.2-.4.2-.4-.8-.5-.8-.4v-.5l3.6-1.2 3.5-1.2.3.3.2.3 1 2.9 1 2.9v1.2l-.7-.2-.6-.3-.5.3-.6.2-.1.4-.2.4.8.2.8.3h1.8l.2 1.2.1 1.3-.1 1.7-.2 1.7-.1.3-.2.2h-5.4zm12.2-13.7l-3.3-1v-.4l-.2-.3.8-.3.8-.3v-.6l-.3-.7-.4-.6v.5h-1.1v-.4h-.5l-.6 1.2-.6 1.2h-.7l-2.4-1.2-2.3-1.2-.2-.3-.1-.2 1.2-2.4 1.1-2.3.9-.3.8-.3h7.9l.6.2.7.3 1 2 1 1.8v.2l1-.4.8-.5.1.2.2.1-.4 1.4-.3 1.4-.8 2.2-.8 2.2h-.6l-3.3-1.2zM4.2 8l-.4-.4V5.6l-.1-.2V4.5h.5l.3.8.4.8.4-.6.5-.6.3.5.3.5.9 1 .9 1L8 8l-.2.2H4.6zm11.4-.2v-.3h.8l.1.3.2.2h-1.1zm8.6-.3l-.2-.6h.2l.8-.5.8-.4.4-.8.4-.8 1.1-.3 1.2-.4 1.4-.8 1.4-.9.3.7.3.7.1 1.8.2 1.7.2.4.2.3.5-.4.5-.5h.4V8h-10zm15.7 0l-.2-.1-.1-1-.2-1.1-.2-.5v-.5h.7l.2.5.2.5v.5l.2.6-.3.2-.3.2.2.5.2.5H40zm-24-.7l-.6-.1-.1-.4-.2-.4.8-2 .8-2 .2-.5.1-.5h.5l2.2 1.9 2.2 1.9.1.3.1.4-.5.7-.5.7h-4.5z"/>
  <path fill="#b1d7f0" d="M6 54l-.2-.1v-3.6l.9-.8.8-.7-.3-1.5-.2-1.5h.5L9.8 47l2.2 1.3.3.3.2.2-.9.4-.9.5-.6.5-.7.5.5-.2.6-.2h6l.7-.4.7-.4h-.5l-.5-.2V49h1l.8.6.9.5v.8h4l4-.2 2.2-.5 2-.6.5-.2.5-.1-.2-.7-.1-.6h.4l.6.4.5.4h.9l-.2-.7-.1-.6h.7l1.4 1.4 1.4 1.4v2l-.1 2H6.2zm18-13.5L21.4 38l-.3-.1-.2-.1v-.6l2.6-2.6L26 32h.9V33.3h.9l-.3-.1-.3-.2v-.5l.3.1.4.2-.4-.8-.4-.8.1-.2v-.3l2.7-1.3 2.6-1.3.3.1.2.1 1 1.9.8 1.8v1.4l-1.6 3-1.6 3.2-.5.4-.6.5h-3.8l-.1 1.2-.1 1.3zm-10.8-.3l-.4-.2-.8-1.4-.8-1.4-1-2.3-1-2.3.5-1.4.5-1.4.2-.4.2-.4-.8-.5-.8-.4v-.5l3.6-1.2 3.5-1.2.3.3.2.3 1 2.9 1 2.9v1.2l-.7-.2-.6-.3-.5.3-.6.2-.1.4-.2.4.8.2.8.3h1.8l.2 1.2.1 1.3-.1 1.7-.2 1.7-.1.3-.2.2h-5.4zm12.2-13.6l-3.3-1v-.4l-.2-.3.8-.3.8-.3v-.6l-.3-.7-.4-.6v.5h-1.1v-.4h-.5l-.6 1.2-.6 1.2h-.7l-2.4-1.2-2.3-1.2-.2-.3-.1-.2 1.1-2.3 1.1-2.2.9-.4.8-.4h8l.6.2.7.3 1 2 1 1.8v.2l1-.4.8-.5.1.2.2.1-.4 1.4-.3 1.4-.8 2.2-.8 2.2h-.6l-3.3-1.2zM4.5 7.6v-.3l.6-1.1.6-1.2 1.1 1.3L8 7.6V8H4.5zm20 0l-.2-.5.5-.4.6-.4.5-.6.6-.5v-.6L28 4l1.6-.6 1-.6 1-.7.2.2.3.3.2 2.4.3 2.5.4-.2h.5l.4-.2h.3l.1.4.1.4h-9.9zm-9.3-1.4L15 6l.8-1.8.8-1.9.2-.7.1-.7h.5l2.3 2 2.3 2V5.1l-.5.7-.4.7h-5.8z"/>
  <path fill="#c7caca" d="M6 54l-.2-.1v-3.6l.9-.8.8-.7-.3-1.5-.2-1.5h.5L9.8 47l2.2 1.3.3.3.2.2-.9.4-.9.5-.6.5-.7.5.5-.2.6-.2h6l.7-.4.7-.4h-.5l-.5-.2V49h1l.8.6.9.5v.8h4l4-.2 2.2-.5 2-.6.5-.2.5-.1-.2-.7-.1-.6h.4l.6.4.5.4h.9l-.2-.7-.1-.6h.7l1.4 1.4 1.4 1.4v2l-.1 2H6.2zm17.7-14L21 37.3l2.7-2.6 2.6-2.7h.4v2.1h2.1l-.6-1.4-.7-1.5v-.4l2.5-1.3 2.4-1.2h.6l1 2.2 1 2.1-1.7 3.4-1.7 3.5-.6.5-.6.5h-3.7v2.1h-.4zm-10.4 0l-.7-.4-1.5-3.3-1.6-3.2v-1.4l.7-1.3.7-1.3-.1-.1-1-.6-.9-.6 1-.4.8-.3 2.6-.9 2.5-.8h.5l1.2 3.4 1.1 3.5-.2.2-.1.1-.7-.3-.7-.3h-.5l-.5 1-.6 1.1h2l1.9.2v6l-2.7.1-2.6.1zm12.1-13.4l-3.3-1.2v-.1l-.2-.1 1-.5 1-.5v-.5l-.9-1.4-.8-1.4H22l-1 1.8-.9 1.9-.2.1-.3.2-2.5-1.3-2.5-1.2v-.7l1-2.1 1-2.1.6-.3.5-.3h9.2l.4.5.4.5.9 1.6.8 1.7.4-.1.5-.2.6-.1.6-.2v.7l-1.2 3.2-1 3.1H29l-.3.1-3.3-1.1zM4.5 7.6v-.3l.6-1.1.6-1.2 1.1 1.3L8 7.6V8H4.5zm20 0l-.2-.5.5-.4.6-.4.5-.6.6-.5v-.6L28 4l1.6-.6 1-.6 1-.7.2.2.3.3.2 2.4.3 2.5.4-.2h.5l.4-.2h.3l.1.4.1.4h-9.9zm-9.3-1.4L15 6l.8-1.8.8-1.9.2-.7.1-.7h.5l2.3 2 2.3 2V5.1l-.5.7-.4.7h-5.8z"/>
  <path fill="#bdc7c8" d="M6 54l-.2-.1v-3.5l1-1 .9-.8-.1-.4-.2-.4-.1-1L7 46l.3.3.4.3.8.6.9.7h.4l.4.5.4.5h.8l-1 1-1 .8 3.4-.1 3.4-.1.8-.4.8-.4-.4-.2h-.3v-.6l.6.2.6.2.6.5.6.6v.7h6.8l1.7-.5 1.7-.6 1-.1 1-.2.6-.3.5-.2-.2-.7-.2-.6 1 .5 1.1.5H35l-.1-.6-.2-.6.3-.2.2-.1 1.5 1.5 1.5 1.5v1.9L38 54H22l-15.8.1zm17.7-14L21 37.3l2.7-2.6 2.6-2.7h.4v2.1h2.1l-.6-1.4-.7-1.5v-.4l2.5-1.3 2.4-1.2h.6l1 2.2 1 2.1-1.7 3.4-1.7 3.5-.6.5-.6.5h-3.7v2.1h-.4zm-10.4 0l-.7-.4-1.5-3.3-1.6-3.2v-1.4l.7-1.3.7-1.3-.1-.1-1-.6-.9-.6 1-.4.8-.3 2.6-.9 2.5-.8h.5l1.2 3.4 1.1 3.5-.2.2-.1.1-.7-.3-.7-.3h-.5l-.5 1-.6 1.1h2l1.9.2v6l-2.7.1-2.6.1zm12.1-13.4l-3.3-1.2v-.1l-.2-.1 1-.5 1-.5v-.5l-.9-1.4-.8-1.4H22l-1 1.8-.9 1.9-.2.1-.3.2-2.5-1.3-2.5-1.2v-.7l1-2.1 1-2.1.6-.3.5-.3h9.2l.4.5.4.5.9 1.6.8 1.7.4-.1.5-.2.6-.1.6-.2v.7l-1.2 3.2-1 3.1H29l-.3.1-3.3-1.1zM4.5 7.8L5 6.4l.5-1.2H6l1 1.3L8 8H4.5zm22.3-.1l-.1-.3.3-1.5.3-1.4h.8l1.3 1.3 1.3 1.4v.7H27l-.2-.2zM15.5 6.3l-.1-.2.5-.1.6-.2 2.5-.1h2.4l-.2.3-.1.4-1.4-.1-1.3-.2-1.4.2-1.4.2z"/>
  <path fill="#8ec9ed" d="M6.2 54h-.4v-3.4l.8-.8.8-.9h.4l.8.6 1 .6-.2.5-.2.5.9-.2.9-.1h2.8l2.8-.1.7-.5.7-.5-.1-.2-.2-.3h.5l.6.5.5.5v.4l-.1.3 3.9.1H27l2.6-.6 2.5-.7.5-.3.5-.2-.2-.6-.1-.5.8.4.8.4h.5V47.2l1.6 1.6 1.6 1.6V54h-.4l-15.6.1H6.5zm17.5-14L21 37.3l2.7-2.6 2.6-2.7h.4v2.1h2.1l-.6-1.4-.7-1.5v-.4l2.5-1.3 2.4-1.2h.6l1 2.2 1 2.1-1.7 3.4-1.7 3.5-.6.5-.6.5h-3.7v2.1h-.4zm-10.4 0l-.7-.4-1.5-3.3-1.6-3.2v-1.4l.7-1.3.7-1.3-.1-.1-1-.6-.9-.6 1-.4.8-.3 2.6-.9 2.5-.8h.5l1.2 3.4 1.1 3.5-.2.2-.1.1-.7-.3-.7-.3h-.5l-.5 1-.6 1.1h2l1.9.2v6l-2.7.1-2.6.1zm12.1-13.4l-3.3-1.2v-.1l-.2-.1 1-.5 1-.5v-.5l-.9-1.4-.8-1.4H22l-1 1.8-.9 1.9-.2.1-.3.2-2.5-1.3-2.5-1.2v-.7l1-2.1 1-2.1.6-.3.5-.3h9.2l.4.5.4.5.9 1.6.8 1.7.4-.1.5-.2.6-.1.6-.2v.7l-1.2 3.2-1 3.1H29l-.3.1-3.3-1.1zM4.8 7.7v-.2l.4-1 .4-1h.2l1 1 .9 1V8H4.8z"/>
  <path fill="#abbac7" d="M6.2 54h-.4v-3.4l.8-.8.8-.9h.4l.8.6 1 .6-.2.5-.2.5.9-.2.9-.1h2.8l2.8-.1.7-.5.7-.5-.1-.2-.2-.3h.5l.6.5.5.5v.4l-.1.3 3.9.1H27l2.6-.6 2.5-.7.5-.3.5-.2-.2-.6-.1-.5.8.4.8.4h.5V47.2l1.6 1.6 1.6 1.6V54h-.4l-15.6.1H6.5zm17.3-14.2L21 37.3l2.5-2.5 2.6-2.5h.6v1l.2 1h.8l1-.1V34h.2l-.8-1.5-.7-1.5.1-.1.1-.1 2.5-1.3 2.5-1.2.2.2.3.1.8 1.6.8 1.5V33.4l-1.8 3.3-1.7 3.2-.3.2-.2.2h-3.1l-.4.1-.5.1v1.8h-.6zm-10 .4L13 40l-1.7-3.5-1.8-3.4V32l.7-1.3.6-1.3v-.5l-1-.6-1-.5.5-.1.4-.2 3.1-1 3.2-1.1.2.2.1.2 1.1 3.3 1.1 3.2v.1l-.2.2-1-.5-.9-.4-.5 1.1-.6 1.1.2.2.2.3h1.7l1.7.1v5.6h-.2v.1l-2.4.2h-2.3zm11.8-13.7l-3-1v-.6l.7-.3.8-.3v-.5l-.8-1.6-.8-1.6H22l-1.1 2.2-1 2.1h-.3l-.2-.2-2.4-1.2-2.4-1.3V22l1-2.2 1.2-2.2.6-.3.6-.3h8.7l.6.7.6.6.8 1.6.7 1.6 1-.4.8-.5.1.2.2.1-1.1 3.4-1.2 3.3h-1l-3-1zM4.8 7.7v-.2l.4-1 .4-1h.2l1 1 .9 1V8H4.8z"/>
  <path fill="#77c3ee" d="M6.2 54h-.4v-3.4l1-.8.9-1 .9.7 1 .6-.2.5-.2.5.7-.1.6-.2h8.6l.2.1.3.2 8.7-.2 8.8-.2-.2-.1-.2-.2h-2l-1.9.2V50l-1 .1-1 .2 1-.4 1.1-.4h.2l-.1-.7-.2-.7.8.4.8.4h.5V47.6h.4l1.4 1.5 1.4 1.5V54h-.4l-15.6.1H6.2zM18.4 50l-.5-.4h.6l.3.4.3.4H19zm5.1-10L21 37.2l2.5-2.5 2.6-2.5h.6v1l.2 1h.8l1-.1V34h.2l-.8-1.5-.7-1.5.1-.1.1-.1 2.5-1.3 2.5-1.2.2.2.3.1.8 1.6.8 1.5V33.4l-1.8 3.3-1.7 3.2-.3.2-.2.2h-3.1l-.4.1-.5.1v1.8h-.6zm-10 .3L13 40l-1.7-3.5-1.8-3.4V32l.7-1.3.6-1.3v-.5l-1-.6-1-.5.5-.1.4-.2 3.1-1 3.2-1.1.2.2.1.2 1.1 3.3 1.1 3.2v.1l-.2.2-1-.5-.9-.4-.5 1.1-.6 1.1.2.2.2.3h1.7l1.7.1v5.6h-.2v.1l-2.4.2h-2.3zm11.8-13.7l-3-1v-.6l.7-.3.8-.3v-.5l-.8-1.6-.8-1.6H22l-1.1 2.2-1 2-2.7-1.3-2.6-1.3V22l1-2.2 1.2-2.2.6-.3.6-.3h8.7l.6.7.6.6.8 1.6.7 1.6 1-.4.8-.5.1.2.2.1-1.1 3.4-1.2 3.3h-1l-3-1z"/>
  <path fill="#aeb3b8" d="M6.2 54h-.4v-3.4l1-.8.9-1 .9.7 1 .6-.2.5-.2.5.7-.1.6-.2h8.6l.2.1.3.2 8.7-.2 8.8-.2-.2-.1-.2-.2h-2l-1.9.2V50l-1 .1-1 .2 1-.4 1.1-.4h.2l-.1-.7-.2-.7.8.4.8.4h.5V47.6h.4l1.4 1.5 1.4 1.5V54h-.4l-15.6.1H6.2zM18.4 50l-.5-.4h.6l.3.4.3.4H19zm5.3-9.9l-2.3-2.3v-.5l2.5-2.5 2.5-2.5.1 1v1l1.2.1 1.1.1v-.7l-.6-1.3-.7-1.3.2-.2.1-.2 2.4-1.2 2.3-1.2H32.8l1 1.9.9 1.8v1.1L33 36l-1.6 3.2-.5.4-.5.5h-2l-2 .1v2H26zm-10.4 0l-.4-.1-1.7-3.6-1.7-3.6V32l.8-1.5.8-1.6-1-.4-1-.5.3-.2.3-.2 2.9-1 2.9-1h.8l1 3.4 1.2 3.2-.2.2-.1.1-.8-.4-.7-.4H16.4l-.5 1.1-.6 1v.6h3.8v5.8h-5.5l-.3-.2zm12.1-13.6l-3-1-.2-.2 1-.6.9-.5-1-2-1-1.8-1.1 2.3-1.2 2.3-2.6-1.4-2.6-1.3V22l1-2.3 1.2-2.2.6-.3.6-.3h8.3l.6.4.6.5 1 1.8.9 1.8H29.7l.8-.4.8-.4.1.2-1 3.3-1.2 3.3h-.8z"/>
  <path fill="#5cacdf" d="M6 53.6l-.2-.4v-1l.2-1H38V54h-32l-.2-.4zM23.6 40l-2.3-2.3v-.5l2.5-2.5 2.5-2.5.1 1v1l1.2.1 1.1.1v-.7l-.6-1.3-.7-1.3.2-.2.1-.2 2.4-1.2 2.3-1.2H32.8l1 1.9.9 1.8v1.1L33 36l-1.6 3.2-.5.4-.5.5h-2l-2 .1v2H26zm-10.4 0l-.4-.1-1.7-3.6-1.7-3.6V32l.8-1.5.8-1.6-1-.4-1-.5.3-.2.3-.2 2.9-1 2.9-1h.8l1 3.4 1.2 3.2-.2.2-.1.1-.8-.4-.7-.4H16.4l-.5 1.1-.6 1v.6h3.8v5.8h-5.5l-.3-.2zm12.1-13.6l-3-1-.2-.2 1-.6.9-.5-1-2-1-1.8-1.1 2.3-1.2 2.3-2.6-1.4-2.6-1.3V22l1-2.3 1.2-2.2.6-.3.6-.3h8.3l.6.4.6.5 1 1.8.9 1.8H29.7l.8-.4.8-.4.1.2-1 3.3-1.2 3.3h-.8z"/>
  <path fill="#9ba0a4" d="M6 53.6l-.2-.4v-1l.2-1H38V54h-32l-.2-.4zm17.8-13.8l-2.5-2.5 2.4-2.4 2.4-2.4h.4v1.9H29V34.1l-.7-1.3-.6-1.4v-.6l2.4-1.2 2.5-1.2 1 1.8 1 1.8v1l-1.8 3.4-1.7 3.3-.5.3-.5.2h-3.7v1l-.2 1.1zm-10.6 0l-.5-.5-1.4-3-1.5-3v-1.6l.7-1.3.6-1.3V29l-1-.5-1-.5 3.4-1.2 3.4-1 .2.1.2.3 1 3 1 3-.2.1v.1l-.6-.3-.5-.2h-.8l-.5 1.1-.6 1.2V34.4h4v5.8h-5.5zm12.4-13.4l-3.2-1 .4-.4.4-.3.5-.3.5-.3-.9-1.8-1-2H22l-1.1 2.3-1.1 2.2-2.5-1.3-2.5-1.3v-.6l1.2-2.2 1-2 4.6-.1 4.5-.1.6.1.6.2 1 2 1 2h.5l.7-.5.7-.3V21l-1 3.2-1 3.2h-.5l-3.1-1z"/>
  <path fill="#999ea2" d="M6 52.8v-1.2l.4.1.2.2v-.7l.2.2.2.2-.3.3-.3.4v1.4h.5l.6.2H6.1zm2.2.5l.3-.7-.1-.2h-.2l.7-.6.7-.5.1.1.2.2-.5.3-.4.4-.1.7-.2.7h1.4l-.1-.5-.2-.6.8.1.8.2.2-.5.3-.5.3.1.4.1.3.5.3.5-.5-.1-.5-.1v-.6l-.4.6-.5.5-.5-.2-.5-.3v.8H11.6l.2-.3.2-.2.3.2.3.3h.9l1 .2H8zm6.5.3v-.4l.2-.1.1-.2.5.5.5.6h-1.4zm1.8.2l.5-.1-.4-.5-.3-.4.3.2.3.2.2-.3.2-.3-.3.2-.3.1v-.6l-.3.3-.2.4-1-.2h-.9l.1.2-.2.1h-.3v-.6l-.2-.3-.2-.3h.5l.1.2.2.2 1.9-.1h2l-.5.2-.4.2h.4l-.2.6-.3.5H18.9l-.5-.5-.5-.5h.7l-.2-.3-.2-.3h.5l.3.4.4.4h.4l-.1-.6v-.7h.4V52.9l-.3.2-.3.1.2.4.1.4H16zm2.7-.7l-.1-.4h-.6l.3.5.4.5v-.1l.2-.1zm2.2.5l.7-.3V53l.2-.3h-.6v.9l-.2-.4-.3-.4-.2.2-.3.2-.1-.8-.1-.8.3-.1.4-.2-.2.7-.2.7.5-.2.5-.2h1l1.1-.1-.7.4-.8.3 1-.1 1-.2-.5.4-.6.4-.4-.1-.4-.2-.1.3-.2.3h2.6v-1.4l-.3-.3-.2-.4.4-.1.4-.1.2 1.1.2 1.2h1l-.4-.5-.4-.4.2-.4v-.3l-.2-.4-.3-.3h.4l.5.1v.5l-.1.4.5-.1.6-.2v.8l.5.3.6.2h-.2l-.3.1 1 .2 1.1.2h-9.2l.6-.3zm6-.2l-.7-.4.1-.1.2-.2h-.8l.3.5.4.5h1l-.6-.3zm3 .4l.4-.2.4-.4.5-.5-1.4-.3-1.3-.2h1.6l.2-.4v-.3H32V51.7l-.3.1-.3.2.3.3.3.3.4-.3.4-.4.3.3.3.3-.8.1-.9.2V54H30l.4-.2zm.8-1.8v-.4H31l-.1.4-.2.4h.5zm1.4 1.8l.7-.1h.6l.6.2H32zm2.8 0l.8-.1v-.5L36 53l-.4-.3-.3.3-.3.3-.3-.3-.3-.3h-.5l.2.3.2.3-.3-.2-.3-.2.3-.4.3-.4.3.1h.3l.2.3.2.3.5-.5.5-.5.2.3.1.3-.1.2-.2.3.3.1.2.2v-1.9l.2.1.3.1v.3l-.2.3h.6l-.2.3-.1.3.3.4.3.4h-.2l-.3-.1H37l-.4.1.7.2.7.2h-3.5l.9-.1zm-7-.9l-.4-.5-.3.2-.3.2.3-.5.4-.4H27l.1-.3.2-.2.5.1.5.2v.9l.6.2.6.3-.3.2-.3.1zM6.7 53v-.4l.8-.6.8-.6.3.2.3.2-.5.1-.5.1.1.5.2.5h-.7l-.4.1-.5.1v-.3zm8.3-1.2l-.2-.4H16l-.3.4-.3.4H15zm3.4-.1l-.2-.3h.9l-.2.3-.1.3h-.2zm5.4-11.8l-2.5-2.5 2.4-2.4 2.4-2.4h.4v1.9H29V34.1l-.7-1.3-.6-1.4v-.6l2.4-1.2 2.5-1.2 1 1.8 1 1.8v1l-1.8 3.4-1.7 3.3-.5.3-.5.2h-3.7v1l-.2 1.1zm-10.6 0l-.5-.5-1.4-3-1.5-3v-1.6l.7-1.3.6-1.3V29l-1-.5-1-.5 3.4-1.2 3.4-1 .2.1.2.3 1 3 1 3-.2.1v.1l-.6-.3-.5-.3h-.8l-.5 1.2-.6 1.2V34.4h4v5.8h-5.5zm12.4-13.4l-3.2-1 .4-.4.4-.3.5-.3.5-.3-.9-1.8-1-2H22l-1.1 2.2-1 2.1H19.5l-2.4-1.2-2.4-1.2v-.6l1.2-2.2 1-2 4.6-.1 4.5-.1.6.1.6.2 1 2 1 2h.5l.7-.5.7-.3V21l-1 3.2-1 3.2h-.5l-3.1-1z"/>
  <path fill="#2a94d5" d="M23.8 39.8l-2.5-2.5 2.4-2.4 2.4-2.4h.4v1.9H29V34.1l-.7-1.3-.6-1.4v-.6l2.4-1.2 2.5-1.2 1 1.8 1 1.8v1l-1.8 3.4-1.7 3.3-.5.3-.5.2h-3.7v1l-.2 1.1zm-10.6 0l-.5-.5-1.4-3-1.5-3v-1.6l.7-1.3.6-1.3V29l-1-.5-1-.5 3.4-1.2 3.4-1 .2.1.2.3 1 3 1 3-.2.1v.1l-.6-.3-.5-.2h-.8l-.5 1.1-.6 1.2V34.4h4v5.8h-5.5zm12.4-13.4l-3.2-1 .4-.4.4-.3.5-.3.5-.3-.9-1.8-1-2H22l-1.1 2.2-1 2.1H19.5l-2.4-1.2-2.4-1.2v-.6l1.2-2.2 1-2 4.6-.1 4.5-.1.6.1.6.2 1 2 1 2h.5l.7-.5.7-.3V21l-1 3.2-1 3.2h-.5l-3.1-1z"/>
  <path fill="#008ee4" d="M23.9 39.8l-2.2-2.3V37.2l2.2-2.3 2.3-2.2V34l.3.3.3.4H29l.2-.2.1-.2-.7-1.5-.8-1.6V31l2.4-1.2 2.4-1.2h.2l.1.2 1 1.9.8 1.8-1.6 3.3-1.7 3.2-.5.5-.5.6-2 .1-2 .1-.2.9-.1.8zm-10.2.2h-.5l-1.7-3.5L9.8 33V32l.7-1.3.6-1.3v-.7l-.8-.4-.9-.4 3.2-1.1 3.3-1 .2.4.2.4.9 2.6.8 2.6v.1l-.2.2-.6-.3-.5-.3h-.5l-.7 1.4-.7 1.5.4.1.5.2H19l-.1 2.7V40h-4.8zm11.9-13.7l-2.8-1V25l.5-.2.6-.2.2-.2.2-.3-.9-1.8-.9-1.8-.3-.2-.2-.1-1.2 2.2-1 2.3-2.5-1.2-2.5-1.2.2-.6.2-.6.7-1.5.7-1.4.5-.5.4-.4h9.1l.4.5.5.4.8 1.7.8 1.6.3.2.2.1.6-.4.6-.4h.4l-1 3.2-1.1 3.2h-.7l-2.8-1z"/>
  <path fill="#078ddb" d="M24.4 40.4l-.6-.6v-.4l.7.7.7.7H25l-.1.2zM13.7 40h-.5l-.7-1.4-.6-1.3.1-.2.2-.1v.6l.2-.2.3-.1-.2.4-.1.4h.5l.8-1.7.8-1.6.3-.9.4-.8.2-.2.3-.1-.5.7-.4.8.4.2.5.2H19l-.1 2.7V40h-4.8zm14 0h1.6l.7.1H27h.8zm4-2.3v-.4h.6l-.2.4-.1.4H31.7zM11.2 36l-.4-.8H11.1l.4.8.4.8h-.2zm22.1-1.2v-.3h-1.9l-2 .1-.8-1.7-.8-1.7V31l2.4-1.2 2.3-1.2H32.8l1 1.9.9 1.8-.3.8-.2.8-.5.6-.4.5v-.2zM10 33.5l-.2-.5V32.7l.3.5.3.4-.2.2-.2-.3zM9.8 32V32l.3-.4.2-.4v.5l-.2.4-.3.4zm6.5-4.7l-.2-.5v-.6l.3.7.3.6-.1.1-.1.1-.2-.4zm1-4l-2.5-1.2.2-.6.2-.6.7-1.5.7-1.4.5-.5.4-.4h3.4l.6 1.3.6 1.3.4.5.4.5-.5-.4-.4-.3-1.2 2.2-1 2.3zM28.7 21l-.5-.6.1-.2h.2l.4.7.4.8H29z"/>
  <path fill="#0774c5" d="M13.6 40l-.6-.3-.1-.4-.2-.5 1.1-2.1 1.1-2.2h.2l.2.2h3.8l-.1 2.7V40h-4.8zm15-7.2l-.8-1.6V31l2.4-1.2 2.4-1.2h.2l.1.2 1 1.8.8 1.8-.4 1-.4 1h-4.5zm-11.3-9.4l-2.5-1.2.2-.6.2-.6.7-1.5.7-1.4.5-.5.4-.4h3.3l.6 1.4.6 1.4-1.1 2.3-1.2 2.3z"/>
  <path fill="#0266b8" d="M13.3 39.8l-.3-.2V39l1-2.1 1-2.1h4v2.5l-.2 2.6v.2h-5.2l-.3-.2zm18.3-5.6h-2.2l-.2-.4-.3-.3-.5-1.3-.6-1.3 2.3-1 2.3-1.2h.2v-.1l1 1.7.8 1.7v1.2l-.3.5-.4.6-2.1-.1zM17.3 23.4L15 22.2V22h-.1l1-2.2 1.1-2.2.6-.2.5-.3h1.2l1.3.1.7 1.4.7 1.4-1 2.2-1.2 2.3z"/>
</svg>
