<svg xmlns="http://www.w3.org/2000/svg" xmlns:xlink="http://www.w3.org/1999/xlink" viewBox="0 0 67.7 64.4">
  <defs>
    <linearGradient id="b">
      <stop offset="0" stop-color="#0763b2"/>
      <stop offset="1" stop-color="#0d4d92"/>
    </linearGradient>
    <linearGradient id="a">
      <stop offset="0" stop-color="#d9dde1"/>
      <stop offset="1" stop-color="#e6e8ea"/>
    </linearGradient>
    <linearGradient id="c" x1="24.7" x2="43.7" y1="18.3" y2="46.5" gradientUnits="userSpaceOnUse" xlink:href="#a"/>
    <linearGradient id="d" x1="27.7" x2="40" y1="22.8" y2="40.8" gradientTransform="translate(-.2 .6)" gradientUnits="userSpaceOnUse" xlink:href="#b"/>
  </defs>
  <path fill="#bac3cb" d="M19.4 62.5c-4.3-2-7.7-4.6-7.7-5.7 0-.3.3-1.3.7-2.1.6-1.4.7-1.9.7-4.5 0-2.7 0-3-.8-4.6a11.6 11.6 0 00-8.7-6.4l-2.3-.4C.4 38.5.2 37 .2 31.6c0-6.2 0-6.4 2.7-6.7 4.4-.5 7.6-2.8 9.5-6.7 1-2.3 1-6.4 0-8.8-1.2-2.4-1-2.8 1.5-4.6C16.3 3 21 .7 22.3.4c.9-.1 1 0 2.3 1.6 5 6.4 14.1 6.2 18.6-.3.4-.6 1-1.2 1.4-1.2C46.3 0 55.6 5.4 56 7c0 .4-.2 1.3-.6 2.2-.7 1.4-.7 1.9-.7 4.6 0 3 0 3.2.8 4.8 2 4 6 6.4 11 6.6 1.3 0 1.7 12.3.5 13.6l-2.4.6c-8 1.3-12.1 8.7-8.9 15.8.4.8.7 1.6.7 1.9 0 1-5 4.3-8.7 6-2.7 1.1-3.3 1-4.5-.7a11.1 11.1 0 00-18.3-.2c-1.7 2-1.9 2-5.5.3zm17.8-13.9a16.5 16.5 0 0013.4-16.1A16.5 16.5 0 0030.2 16C25.7 17 21 21 19 25a16.6 16.6 0 0018.2 23.6zm-6-5.2c-3.3-.7-6.5-3.3-8-6.5-.8-1.7-.8-2-.8-5 0-3.1 0-3.2 1-5.2A11.6 11.6 0 0142.2 24a11.7 11.7 0 01-11 19.6z"/>
  <path fill="#b2bcc5" d="M20.9 63.2c-3.7-1.5-8.8-5-9.1-6-.1-.4.1-1.3.6-2.2.6-1.5.7-1.9.7-4.7 0-2.9 0-3-.9-4.8a11.6 11.6 0 00-8.8-6.4 6.7 6.7 0 01-2.4-.7c-.9-.8-1.3-7-.7-10.8.3-2 .8-2.7 2.4-2.7 1.3 0 3.9-.8 5.3-1.6 1.7-1 3.3-2.9 4.3-5 .8-1.6.8-1.9.8-4.5 0-2.4 0-3-.7-4.5-.5-1.1-.7-2-.6-2.4.2-.9 3.4-3.2 6.9-4.9 4-2 4.2-2 5.2-.7 2.1 2.4 3.5 3.6 5.2 4.4 1.6.8 2 .9 4.8.9s3.1-.1 4.6-.8c1.8-.9 3.5-2.4 4.7-4 .4-.7 1-1.2 1.3-1.3C46 0 55.5 5.3 56 7c.1.3 0 1-.5 2-3.2 7.1 1 14.8 8.7 16l2.3.4c.9.2 1.1 1.8 1.1 7s-.2 6.5-1.3 6.7l-2.4.4a11 11 0 00-8.1 16l.7 1.5-.6.7a25 25 0 01-7 4.7c-3.4 1.6-4.2 1.8-5 .7a14.6 14.6 0 00-5.2-4.5c-2-1-2.1-1-4.8-1-2.6 0-3 0-4.6.9-1.7.8-3.6 2.4-5 4.3-.9 1.2-1.3 1.3-3.4.4zm16.6-14.6c3-.6 6-2.2 8.3-4.6a16.7 16.7 0 00-16.3-28A18 18 0 0019 24.7a16.8 16.8 0 0018.5 24zm-6-5.2a11.8 11.8 0 01-8.3-16.1c2.2-4.6 6.1-7 11.2-6.8 3.2.1 5.4 1.1 7.6 3.3 8.1 8 .8 21.8-10.5 19.6z"/>
  <path fill="#aab0b6" d="M20.4 63a25 25 0 01-8.6-5.8c-.1-.3 0-1.2.5-2.1 3.3-7.4-1.2-15.2-9.4-16-1.6-.3-1.7-.3-2.2-1.3-.5-1-.5-1.6-.5-6 0-5.7.2-6.5 1.9-6.7 4.1-.6 5.5-1.2 7.7-3.3 3.6-3.2 4.6-8.2 2.5-12.6l-.6-2c0-1.4 8.5-6.6 11-6.6.7 0 1 .2 1.6 1.2a11.4 11.4 0 0018.7.4C44 .9 44.3.6 45 .6c1.1 0 4.8 1.7 7.5 3.5 3.8 2.6 4 2.8 3 4.8-3.3 7.2 1 15 8.7 16a7 7 0 012.6.8c1.2 1.2 1.3 11.6 0 13-.3.3-.8.5-1.4.5-4 0-8 2.7-10 6.6-.7 1.6-.7 2-.7 4.5s0 3 .7 4.4c1 2.3 1 2.8-.8 4.2-3.1 2.5-8.7 5.2-10 4.8-.3 0-1-.8-1.6-1.6-4.1-5.8-13-6.2-17.5-.7-2.4 2.9-2.2 2.8-5.1 1.6zm17.5-14.4A16.8 16.8 0 1030 15.7a16.8 16.8 0 007.8 33zM30 43A11.6 11.6 0 0127 22.8a9.8 9.8 0 017-2.2c2.6 0 2.9 0 4.8 1A11.6 11.6 0 0137.5 43a15 15 0 01-7.5 0z"/>
  <path fill="#90afca" d="M21.6 63.3c-2.8-1-7.7-3.9-9.1-5.4-.7-.8-.7-1.1.4-4.1 1.4-4 .4-8-2.6-11.3A12.3 12.3 0 004 39.1c-3-.4-2.8-.3-3.4-1.7-.4-1-.4-2-.4-5.7 0-6 0-6.2 3.2-6.7a11.4 11.4 0 009.2-15.6C11.5 7 11.6 6.7 14 5c2.4-1.7 7-4 8.3-4.3.9-.1 1 0 2.2 1.5 5.1 6.5 14.3 6.3 19-.5.7-1 .8-1.1 1.7-1A35 35 0 0154 5.2c2.2 1.6 2.3 2 1.2 4.2-.6 1.5-.7 2-.7 4.4 0 2.6 0 3 .8 4.6 2 4 6 6.8 10 6.8 2 0 2.4 1.2 2.4 7.7 0 5.5-.3 6.3-2.7 6.3-2.5 0-5.3 1.4-7.4 3.6a11 11 0 00-2 12.4c1 2 .7 2.4-1.6 4.1-1.9 1.4-7.1 4.1-8.4 4.4-.8.2-1 .1-3.2-2.6a12 12 0 00-9.5-3.8c-3.1.5-6 2.2-7.9 4.5-1.4 2-1.7 2.1-3.3 1.5zM38 48.6a17.3 17.3 0 0012.3-12.4c.5-2 .5-6.2 0-8.2-1-4.4-4.7-9-8.6-11A17 17 0 0017 31.3a16.8 16.8 0 0012.7 17.4c1.9.5 6.3.5 8.4 0zM30 43a11.6 11.6 0 01-3.2-20.2 9.8 9.8 0 017-2.2c2.6 0 2.9 0 4.8 1A11.6 11.6 0 0137.5 43a15 15 0 01-7.5 0z"/>
  <path fill="#9ba3a9" d="M21.6 63.3c-2.8-1-7.7-3.9-9.1-5.4-.7-.8-.7-1.1.4-4.1 1.4-4 .4-8-2.6-11.3A12.3 12.3 0 004 39.1c-3-.4-2.8-.3-3.4-1.7-.4-1-.4-2-.4-5.7 0-6 0-6.2 3.2-6.7a11.4 11.4 0 009.2-15.6C11.5 7 11.6 6.7 14 5c2.4-1.7 7-4 8.3-4.3.9-.1 1 0 2.2 1.5 5.1 6.5 14.3 6.3 19-.5.7-1 .8-1.1 1.7-1A35 35 0 0154 5.2c2.2 1.6 2.3 2 1.2 4.2-.6 1.5-.7 2-.7 4.4 0 2.6 0 3 .8 4.6 2 4 6 6.8 10 6.8 2 0 2.4 1.2 2.4 7.7 0 5.5-.3 6.3-2.7 6.3-2.5 0-5.3 1.4-7.4 3.6a11 11 0 00-2 12.4c1 2 .7 2.4-1.6 4.1-1.9 1.4-7.1 4.1-8.4 4.4-.8.2-1 .1-3.2-2.6a12 12 0 00-9.5-3.8c-3.1.5-6 2.2-7.9 4.5-1.4 2-1.7 2.1-3.3 1.5zM38 48.6a17.3 17.3 0 0012.3-12.4c.5-2 .5-6.2 0-8.2-1-4.4-4.7-9-8.6-11A17 17 0 0017 31.3a16.8 16.8 0 0012.7 17.4c1.9.5 6.3.5 8.4 0zm-7-5.4a11.4 11.4 0 01-2-21.5c3.5-1.7 7.8-1.3 11.1 1 9 6 5 20.2-5.7 20.7a16 16 0 01-3.4-.2z"/>
  <path fill="#949ca2" d="M18.9 62c-3.7-1.9-6.8-4.1-7-5 0-.3.2-1.1.5-1.8a11 11 0 001-5.8c-.2-5.3-4.4-9.7-10-10.5-2.3-.3-2.4-.3-2.9-2C0 35.3 0 27.5.5 27c.2-.2.3-.5.3-.8 0-.6.8-1 2-1 4.3 0 8.8-3.6 10.3-8.2.7-2 .5-5.7-.5-7.8-.4-.8-.7-1.7-.7-2 0-1 5.1-4.4 8.8-5.8 2.3-.9 2.6-.8 3.4.4C25 3.2 27 5 29 6c2.2 1 5.6 1.3 8 .6a13 13 0 006-4.3c1.7-2 1.5-2 5.7 0 3.3 1.6 6.7 4 7 4.7 0 .3-.2 1.2-.7 2.2-.6 1.5-.7 1.8-.7 4.6 0 3 0 3.2.9 4.9 1.6 3.3 4.6 5.6 8 6.3 3.2.5 3.2.6 3.8 1.7.5.9.5 1.6.5 5.5 0 5-.3 6.4-1.3 6.6l-2.3.4c-5 .9-8.7 4.6-9.5 9.5-.4 2.1 0 4.3 1.1 6.9.5 1 .6 1.5.3 1.8-1 1.7-8.2 5.9-10.5 6.1-1 .1-1.2.1-2-1-4.6-6.8-13.9-7-18.8-.3-1.4 1.8-1.7 1.8-5.7-.2zm19.9-13.5c5.5-1.7 9.8-6 11.5-11.6 1-3 .9-7-.1-10-1.6-5-5.3-8.8-10.2-10.8-2.6-1-7.5-1.3-10.3-.6a17 17 0 109.1 33zm-7.7-5.3a11.4 11.4 0 01-2-21.5c3.5-1.7 7.8-1.3 11.1 1 9 6 5 20.2-5.7 20.7a16 16 0 01-3.4-.2z"/>
  <path fill="#6598c3" d="M20.3 62.7C17 61.2 12.3 58 12 57l.5-2c2-4.5 1.3-9-2-12.7-2-2.2-5.3-3.7-8-3.7-1 0-1.7-.6-1.7-1.5 0-.3 0-.6-.2-.6a22.1 22.1 0 010-9.4c.1 0 .2-.1.2-.5 0-1 .6-1.2 2.7-1.5 3.8-.5 7-2.7 8.8-6a11 11 0 00.4-10c-.5-1.3-.6-2-.5-2.3a29 29 0 0110.1-6c.9 0 1 0 1.7 1 1.8 2.7 4.7 4.5 8 5.1 4.2.8 8.9-1.3 11.5-5 .7-1.1.8-1.2 1.7-1 2.2.2 9 4.1 10.2 5.7.5.7.5.7-.2 2.2-1 2.3-1.4 4.6-1 6.7 1 5.2 4.9 8.9 10.1 9.7 1.1.1 2.1.3 2.3.5 1.1.8 1.5 10 .5 12-.5 1-.6 1-2.1 1.2-8.6 1-13.2 9.3-9.4 16.7.7 1.4.5 2-2 3.7a34 34 0 01-8.3 4.2c-.9 0-1-.1-2.3-1.9a11.4 11.4 0 00-18.7.7c-1 1.4-1.3 1.5-4 .3zm17.6-14c7.7-1.9 13.2-8.9 13.2-16.6 0-4.6-1.8-8.8-5.3-12.2a16 16 0 00-12.7-5 17 17 0 00-11.3 29.2 16.7 16.7 0 0016.1 4.7zm-6.8-5.5a11.4 11.4 0 01-2-21.5c3.5-1.7 7.8-1.3 11.1 1 9 6 5 20.2-5.7 20.7a16 16 0 01-3.4-.2z"/>
  <path fill="#8a9299" d="M20.3 62.7C17 61.2 12.3 58 12 57l.5-2c2-4.5 1.3-9-2-12.7-2-2.2-5.3-3.7-8-3.7-1 0-1.7-.6-1.7-1.5 0-.3 0-.6-.2-.6a22.1 22.1 0 010-9.4c.1 0 .2-.1.2-.5 0-1 .6-1.2 2.7-1.5 3.8-.5 7-2.7 8.8-6a11 11 0 00.4-10c-.5-1.3-.6-2-.5-2.3a29 29 0 0110.1-6c.9 0 1 0 1.7 1 1.8 2.7 4.7 4.5 8 5.1 4.2.8 8.9-1.3 11.5-5 .7-1.1.8-1.2 1.7-1 2.2.2 9 4.1 10.2 5.7.5.7.5.7-.2 2.2-1 2.3-1.4 4.6-1 6.7 1 5.2 4.9 8.9 10.1 9.7 1.1.1 2.1.3 2.3.5 1.1.8 1.5 10 .5 12-.5 1-.6 1-2.1 1.2-8.6 1-13.2 9.3-9.4 16.7.7 1.4.5 2-2 3.7a34 34 0 01-8.3 4.2c-.9 0-1-.1-2.3-1.9a11.4 11.4 0 00-18.7.7c-1 1.4-1.3 1.5-4 .3zm17.6-14c7.7-1.9 13.2-8.9 13.2-16.6 0-4.6-1.8-8.8-5.3-12.2a16 16 0 00-12.7-5 17 17 0 00-11.3 29.2 16.7 16.7 0 0016.1 4.7zm-7.5-5.9a12 12 0 01-7.3-7.5c-.7-2.4-.4-5.9.7-8 1.1-2.3 3-4.2 5.2-5.3 1.8-.9 2-.9 4.9-.9 3 0 3.1 0 4.8.9C41 23 43 25 44 27.2c.8 1.8.9 2 .9 4.9 0 3 0 3.1-1 4.8-1 2.3-2.9 4.2-5.2 5.3-1.6.8-2 .9-4.4 1-1.8 0-3-.1-4-.4z"/>
  <path fill="#828a92" d="M21.7 63.2c-3-1.1-8.5-4.5-9.4-5.8-.4-.6-.3-.7.3-2.1 2.1-4.6 1.1-9.8-2.4-13.3-2-2-3.9-2.8-7.9-3.4C1.2 38.4.8 37.8.8 36c0-1 0-1-.2-.2C.2 37.3 0 31.4.2 29c.2-1.3.3-1.7.3-1.1.1.8.1.8.3-.4.3-1.6.7-2 1.8-2 1.4 0 3.4-.6 5-1.4 4-2 6.2-6 6.3-11v-2.6l5.6-3.2L25.2 4l.9.7c.5.4 1.7 1 2.7 1.5 1.7.8 2 .9 5 .9 3.1 0 3.2 0 5.1-1 2-1 3.4-2.2 5-4.4.7-.9.7-.9 1.8-.6 2.8 1 9.4 4.9 9.8 6 0 .2-.2 1.2-.6 2.2a9 9 0 00-.8 4.5c0 2.7 0 3 1 4.8a12 12 0 0010.2 6.9c1 0 1.7.6 1.7 1.4 0 .4.1.7.3.8.4.1.4 9 0 9.5-.2.1-.3.5-.3.8 0 .5-.8 1-2 1-3.7 0-8 2.9-9.7 6.7-.9 1.7-1 2-1 4.6 0 2.5.2 3 .8 4.4 1.2 2.5 1 2.8-1.3 4.5a34 34 0 01-8.3 4.3c-1 .1-1 0-2-1.3a11 11 0 00-9-5c-4.1 0-7.4 1.4-9.7 4.5-1.6 2-1.5 2-3 1.5zm17.5-14.7a18 18 0 0011.1-11.1c.8-2.4 1-7 .4-9.3a17.3 17.3 0 00-15.1-13.2 16.4 16.4 0 00-14.3 5.3c-3.2 3.4-4.6 7-4.6 11.7 0 3.4.3 4.8 1.8 7.8a17 17 0 0011 9c2.5.8 7.1.7 9.7-.2zm-8.8-5.7a12 12 0 01-7.3-7.5c-.7-2.4-.4-5.9.7-8 1.1-2.3 3-4.2 5.2-5.3 1.8-.9 2-.9 4.9-.9 3 0 3.1 0 4.8.9C41 23 43 25 44 27.2c.8 1.8.9 2 .9 4.9 0 3 0 3.1-1 4.8-1 2.3-2.9 4.2-5.2 5.3-1.6.8-2 .9-4.4 1-1.8 0-3-.1-4-.4z"/>
  <path fill="#7e8790" d="M20.5 62.6c-2.4-1-4.6-2.3-6.8-4C12 57.3 12 57 13 54.7c1.4-3 1.1-7-.7-10.3a13 13 0 00-9.8-6c-1 0-1.4-.5-1.6-2.7-.2-1.8-.2-1.8-.3-.6 0 1.2 0 1.2-.3-.8-.4-3.6-1-3 11.1-10 11.9-6.9 14-8.1 13-7.2a18.5 18.5 0 00-7 20A18 18 0 0029.5 49c2 .5 6.3.5 8.5 0 5.9-1.4 11-6.5 12.6-12.6.7-2.6.4-7.7-.5-10.1-1.9-5.1-5.9-9-11-10.8a20.6 20.6 0 00-14 1l11.7-7 11.8-6.7 1.7.8c1.6.9 5.2 3.4 5.2 3.7L54.9 9c-1.4 3.4-1.3 6.6.2 9.8 1.7 3.7 6.1 6.6 10 6.7 1.2 0 1.9.6 1.9 1.7 0 .4 0 .6.2.5a22.1 22.1 0 010 9.4c-.1 0-.2.2-.2.5 0 .9-.8 1.4-2 1.4-4 0-8.2 3-10 7-1 2-.9 6.5.1 9 .5 1 .7 2 .6 2.3-.2 1-4.5 3.8-8.1 5.4-2.7 1.1-3 1.1-4-.4a12 12 0 00-11.3-5c-3.2.4-5.4 1.8-8.4 5.3l-1 1-2.4-1zm9.9-19.8a12 12 0 01-7.3-7.5c-.7-2.4-.4-5.9.7-8 1.1-2.3 3-4.2 5.2-5.3 1.8-.9 2-.9 4.9-.9 3 0 3.1 0 4.8.9C41 23 43 25 44 27.2c.8 1.8.9 2 .9 4.9 0 3 0 3.1-1 4.8-1 2.3-2.9 4.2-5.2 5.3-1.6.8-2 .9-4.4 1-1.8 0-3-.1-4-.4z"/>
  <path fill="#7b848c" d="M44.1 62.9c-3-3.7-5-5.1-8.4-5.7-4.3-.7-8.8 1.3-11.4 5-.8 1.1-.9 1.2-1.8 1a28 28 0 01-8.1-4.2c-2.4-1.7-2.6-2-1.7-3.8 1.5-3 1.5-6.9 0-10a12 12 0 00-10.2-6.8c-.8 0-1.4-.5-1.4-1.2 0-.2 15-9 15.3-9 .1 0 .2 1.6.2 3.7 0 3.5 0 3.9.8 6 2 5 5.6 8.6 10.6 10.5 2.4 1 7.5 1.2 10.1.5a17.9 17.9 0 0012.5-12c.8-2.6.8-6.7.1-9.3-1.4-5.2-5.6-10-10.3-12l-1.5-.5 7.5-4.3L54 6.4l.8.4c.5.4.5.4-.2 2.6a11.8 11.8 0 009.8 16c2 .3 2.5.7 2.5 2 0 .6 0 .7.2.5.3-.5.6 4.1.4 6.8-.1 1.3-.3 2.3-.4 2.3-.1-.1-.2.1-.2.4 0 1.1-.4 1.3-2.5 1.6-7.9.9-12.5 9-9.3 16 .4.9.6 1.7.6 2 0 .9-3.3 3.3-7.2 5.1-3.3 1.6-3.7 1.7-4.5.8zM30.4 42.8a12 12 0 01-7.3-7.5c-.7-2.4-.4-5.9.7-8 1.1-2.3 3-4.2 5.2-5.3 1.8-.9 2-.9 4.9-.9 3 0 3.1 0 4.8.9C41 23 43 25 44 27.2c.8 1.8.9 2 .9 4.9 0 3 0 3.1-1 4.8-1 2.3-2.9 4.2-5.2 5.3-1.6.8-2 .9-4.4 1-1.8 0-3-.1-4-.4z"/>
  <path fill="#727c85" d="M44.7 63.4c-.2 0-.8-.7-1.3-1.5a11.8 11.8 0 00-14.9-3.6c-1.3.7-3.7 2.9-4.4 4.1-.4.7-.8 1-1.3 1-1.6 0-9.5-4.7-10.4-6.2-.2-.3-.1-.9.4-2a12 12 0 00-.7-11.5l-.7-1.1 3-1.7 3-1.7 1.3 1.8a17.6 17.6 0 0030.8-17c-.5-1-1-2-1-2.3-.2-.3.3-.7 2.6-2a12 12 0 013.2-1.5l.8 1.3c1.5 3 5.3 5.5 9.1 6l2.3.5.4 1.6c.1 1.1.2 1.3.3.8.1-.4.3.1.4 1.6.2 2.6 0 7.6-.4 6.7-.2-.4-.2-.4-.2.3 0 1.3-.5 1.6-2.7 2-7.9 1-12.5 9.4-9 16.2.3.7.5 1.5.5 1.8-.2 1.6-9.4 6.8-11 6.4zM30.4 42.8a12 12 0 01-7.3-7.5c-.7-2.4-.4-5.9.7-8 1.1-2.3 3-4.2 5.2-5.3 1.8-.9 2-.9 4.9-.9 3 0 3.1 0 4.8.9C41 23 43 25 44 27.2c.8 1.8.9 2 .9 4.9 0 3 0 3.1-1 4.8-1 2.3-2.9 4.2-5.2 5.3-1.6.8-2 .9-4.4 1-1.8 0-3-.1-4-.4z"/>
  <path fill="#6d7882" d="M19.4 61.9a25.8 25.8 0 01-6.8-4.7c-.2-.3-.1-.7.3-1.5.4-1 1-1.4 6.4-4.5l6-3.4 1.3.4c3.6 1.4 8.3 1.7 11.4 1a18 18 0 0013.3-15l.1-1.5 6-3.5c5.3-3 6.2-3.5 7.2-3.5.6 0 1.3.1 1.5.3.4.2.8 1.7.9 3v1.1l.2-1.2c.2-1 .2-1 .4 1.1.2 2.6-.1 8-.4 6.2l-.2-1v1c0 2-.4 2.5-1.7 2.5-2.6 0-6 1.5-8 3.5-3.4 3.5-4.3 9-2 13.5.3.6.5 1.2.4 1.5-.4 1.2-8.8 6.1-10.4 6.1-.6 0-1-.3-1.8-1.4a10.8 10.8 0 00-9.6-4.8c-4.3 0-7 1.4-9.5 4.8-.6.8-1.3 1.4-1.6 1.4-.2 0-1.8-.6-3.4-1.4zm11-19.1a12 12 0 01-7.3-7.5c-.7-2.4-.4-5.9.7-8 1.1-2.3 3-4.2 5.2-5.3 1.8-.9 2-.9 4.9-.9 3 0 3.1 0 4.8.9C41 23 43 25 44 27.2c.8 1.8.9 2 .9 4.9 0 3 0 3.1-1 4.8-1 2.3-2.9 4.2-5.2 5.3-1.6.8-2 .9-4.4 1-1.8 0-3-.1-4-.4z"/>
  <path fill="#6a7680" d="M20.4 62.3l-2.8-1.6-.6-.5 9.2-5.3c7.7-4.5 9.3-5.3 10.5-5.4 3.7-.5 7.4-2.5 10.5-5.8 1.9-2 2.4-2.3 11-7.2 6.5-3.8 9-5.1 9-4.8 0 .2.2.3.3.2.3-.1.3 1.4 0 3.8l-.2 1.5v-1.4l-.1-1.5-.3 1.8c-.2 2.2-.5 2.6-1.9 2.6-4 0-8.2 2.8-10 6.8a9 9 0 00-1 4.1 11 11 0 001.4 6.4l.5 1-1 .9a28 28 0 01-9.9 5.4c-.3 0-.8-.4-1.3-1.1-4.5-6.6-14.5-7.2-19-1-1 1.4-1.6 2.1-1.9 2.1l-2.4-1z"/>
  <path fill="#68747e" d="M43.4 61.7A11.8 11.8 0 0031.3 57c-3.3.7-5.3 2-7.2 4.8-.5.7-1 1.1-1.4 1.1-.7 0-2.2-.7-1.9-1l46-26.5c.4 0-.1 2.5-.6 2.9-.2.2-.9.3-1.5.3-7.4 0-12.8 8.3-10 15.5 1.1 3 1 3.2-1.1 4.8-2 1.6-6.8 4-8.1 4.2-.8.1-1 0-2.1-1.5zm23.9-25.1c0-.4 0-.5.1-.3v.6l-.1-.3z"/>
  <path fill="#65717c" d="M44.6 63.1a6 6 0 01-.9-1.2c-.7-1.2-3-3.2-4.3-4l-1-.5 15.4-9 .1 2.2c0 1.6.2 2.4.8 3.7 1.2 3 1.2 3-.9 4.5-1.8 1.4-7 4.1-8.3 4.4h-1z"/>
  <path fill="#2c70b0" d="M44.7 63c-.4-.2-1.2-1.7-1-2l5.4-3.1c5.6-3.2 5.6-3.2 6.2-1.7.3.7.3.8-.3 1.5-2 2-9.3 5.9-10.3 5.3z"/>
  <path fill="#616e79" d="M44.7 63c-.4-.2-1.2-1.7-1-2l5.4-3.1c5.6-3.2 5.6-3.2 6.2-1.7.3.7.3.8-.3 1.5-2 2-9.3 5.9-10.3 5.3z"/>
  <ellipse cx="33.8" cy="32.6" fill="url(#c)" rx="17.1" ry="17"/>
  <ellipse cx="33.8" cy="32.6" fill="url(#d)" rx="11.5" ry="11.8"/>
</svg>
